<svg width="28" height="28" viewBox="0 0 28 28" fill="none" xmlns="http://www.w3.org/2000/svg"><circle cx="14" cy="14" fill="#fff" r="11.083"/><path d="M25.6667 12.9267V14C25.6653 16.5158 24.8506 18.9638 23.3443 20.9788C21.8379 22.9938 19.7205 24.4679 17.308 25.1812C14.8954 25.8945 12.3168 25.8089 9.95692 24.937C7.597 24.0652 5.58214 22.4538 4.21283 20.3432C2.84352 18.2327 2.19313 15.7361 2.35866 13.2257C2.5242 10.7153 3.49678 8.32572 5.13137 6.41326C6.76595 4.50079 8.97496 3.16795 11.4289 2.61351C13.8829 2.05907 16.4504 2.31273 18.7484 3.33667" stroke="gold" stroke-width="2" stroke-linecap="round" stroke-linejoin="round"/><path d="M25.6667 4.66663L14 16.345L10.5 12.845" stroke="gold" stroke-width="2" stroke-linecap="round" stroke-linejoin="round"/></svg>