<svg width="127" height="89" viewBox="0 0 127 89" fill="none" xmlns="http://www.w3.org/2000/svg"><path opacity=".06" d="M51.649 16.2434C44.5738 20.7554 39.3853 25.2674 36.0836 29.7795C32.7818 34.2915 31.2488 39.8188 31.4847 46.3612H52.3565V89H3.18384C1.06128 78.1711 0 68.583 0 60.2357C0 44.218 3.41968 31.6971 10.2591 22.673C17.3343 13.4233 27.4754 5.86566 40.6824 0L51.649 16.2434ZM126.292 16.2434C119.453 20.7554 114.383 25.2674 111.081 29.7795C107.779 34.2915 106.246 39.8188 106.482 46.3612H127V89H78.1811C76.0585 77.7199 74.9972 68.019 74.9972 59.8974C74.9972 44.1052 78.4169 31.6971 85.2563 22.673C92.3315 13.4233 102.355 5.86566 115.326 0L126.292 16.2434Z" fill="#000"/></svg>