<svg width="120" height="22" viewBox="0 0 120 22" fill="none" xmlns="http://www.w3.org/2000/svg"><path d="M5.928 18H9.624V4.608H14.736V1.2H0.816V4.608H5.928V18ZM20.7593 18.288C23.0873 18.288 24.8153 17.376 26.0153 15.888L23.9273 14.04C22.9193 14.976 22.0313 15.36 20.8073 15.36C19.1753 15.36 18.0233 14.496 17.6633 12.84H26.6153C26.6393 12.504 26.6633 12.168 26.6633 11.88C26.6633 8.232 24.6953 4.896 20.3993 4.896C16.6553 4.896 14.0393 7.92 14.0393 11.592C14.0393 15.576 16.8953 18.288 20.7593 18.288ZM17.6153 10.56C17.9033 8.904 18.8873 7.824 20.3993 7.824C21.9353 7.824 22.8953 8.928 23.1113 10.56H17.6153ZM29.55 18H33.198V0.48H29.55V18ZM42.7202 18.288C45.0482 18.288 46.7762 17.376 47.9762 15.888L45.8882 14.04C44.8802 14.976 43.9922 15.36 42.7682 15.36C41.1362 15.36 39.9842 14.496 39.6242 12.84H48.5762C48.6002 12.504 48.6242 12.168 48.6242 11.88C48.6242 8.232 46.6562 4.896 42.3602 4.896C38.6162 4.896 36.0002 7.92 36.0002 11.592C36.0002 15.576 38.8562 18.288 42.7202 18.288ZM39.5762 10.56C39.8642 8.904 40.8482 7.824 42.3602 7.824C43.8962 7.824 44.8562 8.928 45.0722 10.56H39.5762ZM55.8549 18.24C58.6389 18.24 60.7749 16.944 60.7749 14.088C60.7749 11.688 58.6869 10.824 56.8869 10.224C55.4949 9.744 54.2709 9.408 54.2709 8.688C54.2709 8.136 54.7269 7.752 55.6149 7.752C56.5509 7.752 57.8229 8.208 59.0949 8.952L60.4869 6.432C59.0949 5.496 57.3189 4.944 55.6869 4.944C53.0949 4.944 50.9829 6.408 50.9829 9.024C50.9829 11.568 53.0229 12.408 54.8229 12.936C56.2389 13.368 57.4869 13.632 57.4869 14.424C57.4869 15.048 57.0069 15.432 55.9509 15.432C54.7509 15.432 53.2869 14.904 51.8949 13.896L50.3349 16.296C52.0389 17.64 54.0549 18.24 55.8549 18.24ZM63.3898 21.84H67.0378V16.32C67.9018 17.352 69.1018 18.24 71.0458 18.24C74.0938 18.24 76.9018 15.888 76.9018 11.592C76.9018 7.248 74.0458 4.896 71.0458 4.896C69.1498 4.896 67.9258 5.784 67.0378 6.984V5.136H63.3898V21.84ZM70.1098 15.144C68.4058 15.144 66.9898 13.728 66.9898 11.592C66.9898 9.408 68.4058 7.992 70.1098 7.992C71.8138 7.992 73.2538 9.408 73.2538 11.544C73.2538 13.752 71.8138 15.144 70.1098 15.144ZM83.2331 18.24C85.0091 18.24 86.2331 17.592 87.1211 16.608V18H90.6491V10.536C90.6491 8.808 90.2171 7.392 89.2571 6.432C88.3451 5.52 86.9051 4.992 84.9131 4.992C82.7291 4.992 81.3371 5.4 79.9211 6.024L80.8331 8.808C82.0091 8.376 82.9931 8.112 84.3851 8.112C86.2091 8.112 87.1451 8.952 87.1451 10.464V10.68C86.2331 10.368 85.2971 10.152 84.0011 10.152C80.9531 10.152 78.8171 11.448 78.8171 14.256C78.8171 16.848 80.8091 18.24 83.2331 18.24ZM84.3371 15.72C83.1611 15.72 82.3451 15.144 82.3451 14.16C82.3451 12.96 83.3051 12.336 84.8651 12.336C85.7531 12.336 86.5691 12.528 87.1931 12.816V13.464C87.1931 14.784 86.0411 15.72 84.3371 15.72ZM99.8603 18.288C102.428 18.288 103.868 17.304 105.116 15.936L102.98 13.776C102.092 14.616 101.252 15.144 100.028 15.144C98.0363 15.144 96.7643 13.56 96.7643 11.592C96.7643 9.648 98.0603 8.04 99.8843 8.04C101.324 8.04 102.092 8.568 102.884 9.312L105.02 7.152C103.82 5.808 102.332 4.896 99.9083 4.896C95.9723 4.896 93.1643 7.92 93.1643 11.592C93.1643 15.312 95.9963 18.288 99.8603 18.288ZM113.244 18.288C115.572 18.288 117.3 17.376 118.5 15.888L116.412 14.04C115.404 14.976 114.516 15.36 113.292 15.36C111.66 15.36 110.508 14.496 110.148 12.84H119.1C119.124 12.504 119.148 12.168 119.148 11.88C119.148 8.232 117.18 4.896 112.884 4.896C109.14 4.896 106.524 7.92 106.524 11.592C106.524 15.576 109.38 18.288 113.244 18.288ZM110.1 10.56C110.388 8.904 111.372 7.824 112.884 7.824C114.42 7.824 115.38 8.928 115.596 10.56H110.1Z" fill="#1B1C1E"/></svg>