<svg width="118" height="30" viewBox="0 0 118 30" fill="none" xmlns="http://www.w3.org/2000/svg"><rect width="118" height="30" rx="4" fill="#069AED"/><path d="M18.1812 14.5818C19.4089 13.7654 20.7792 13.0839 22.0597 12.399C24.2625 11.2771 26.474 10.1747 28.7079 9.14833C29.1425 8.97346 29.9234 8.80247 30 9.58015C29.9581 10.681 29.7856 11.7754 29.6673 12.8698C29.367 15.2765 29.0199 17.6749 28.6814 20.0736C28.5648 20.8727 27.7358 21.2863 27.2054 20.7749C25.9307 19.7353 24.6462 18.7058 23.3877 17.642C22.9755 17.1363 23.3578 16.4099 23.7259 16.0488C24.7758 14.7995 25.8893 13.738 26.8843 12.4242C27.1527 11.6416 26.3596 12.3011 26.0981 12.5032C24.6607 13.6992 23.2586 14.9681 21.7432 16.0192C20.9692 16.5337 20.067 16.094 19.2933 15.8069C18.5996 15.4601 17.5831 15.1106 18.1812 14.5818Z" fill="#fff"/><path d="M38.6761 10.9119H41.8778V20H43.1108V10.9119H46.3125V9.81818H38.6761V10.9119ZM50.1506 20.1591C51.7017 20.1591 52.8352 19.3835 53.1932 18.2301L52.0597 17.9119C51.7614 18.7074 51.0703 19.1051 50.1506 19.1051C48.7734 19.1051 47.8239 18.2152 47.7692 16.5795H53.3125V16.0824C53.3125 13.2386 51.6222 12.2642 50.0312 12.2642C47.9631 12.2642 46.5909 13.8949 46.5909 16.2415C46.5909 18.5881 47.9432 20.1591 50.1506 20.1591ZM47.7692 15.5653C47.8487 14.3771 48.6889 13.3182 50.0312 13.3182C51.304 13.3182 52.1193 14.2727 52.1193 15.5653H47.7692ZM56.2706 9.81818H55.0973V20H56.2706V9.81818ZM61.6213 20.1591C63.1724 20.1591 64.3059 19.3835 64.6639 18.2301L63.5304 17.9119C63.2321 18.7074 62.541 19.1051 61.6213 19.1051C60.2441 19.1051 59.2946 18.2152 59.2399 16.5795H64.7832V16.0824C64.7832 13.2386 63.0929 12.2642 61.502 12.2642C59.4338 12.2642 58.0616 13.8949 58.0616 16.2415C58.0616 18.5881 59.4139 20.1591 61.6213 20.1591ZM59.2399 15.5653C59.3194 14.3771 60.1596 13.3182 61.502 13.3182C62.7747 13.3182 63.59 14.2727 63.59 15.5653H59.2399ZM69.6504 23.0227C71.4799 23.0227 72.9515 22.1875 72.9515 20.2188V12.3636H71.818V13.5767H71.6987C71.4402 13.179 70.9629 12.2642 69.4714 12.2642C67.5424 12.2642 66.21 13.7955 66.21 16.142C66.21 18.5284 67.6021 19.8807 69.4515 19.8807C70.943 19.8807 71.4203 19.0057 71.6788 18.5881H71.7782V20.1392C71.7782 21.4119 70.8833 21.9886 69.6504 21.9886C68.2633 21.9886 67.7761 21.2578 67.4629 20.8352L66.5282 21.4915C67.0055 22.2919 67.9451 23.0227 69.6504 23.0227ZM69.6106 18.8267C68.139 18.8267 67.3833 17.7131 67.3833 16.1222C67.3833 14.571 68.1191 13.3182 69.6106 13.3182C71.0424 13.3182 71.7981 14.4716 71.7981 16.1222C71.7981 17.8125 71.0225 18.8267 69.6106 18.8267ZM75.0993 20H76.2725V15.1676C76.2725 14.1335 77.0879 13.3778 78.2015 13.3778C78.5147 13.3778 78.8379 13.4375 78.9174 13.4574V12.2642C78.7832 12.2543 78.475 12.2443 78.301 12.2443C77.3862 12.2443 76.5907 12.7614 76.3123 13.517H76.2328V12.3636H75.0993V20ZM82.5554 20.179C83.8878 20.179 84.5838 19.4631 84.8224 18.9659H84.8821V20H86.0554V14.9688C86.0554 12.5426 84.206 12.2642 83.2315 12.2642C82.0781 12.2642 80.7656 12.6619 80.169 14.054L81.2827 14.4517C81.5412 13.8949 82.1527 13.2983 83.2713 13.2983C84.3501 13.2983 84.8821 13.87 84.8821 14.8494V14.8892C84.8821 15.456 84.3054 15.4062 82.9134 15.5852C81.4964 15.7692 79.9503 16.0824 79.9503 17.8324C79.9503 19.3239 81.1037 20.179 82.5554 20.179ZM82.7344 19.125C81.7997 19.125 81.1236 18.7074 81.1236 17.892C81.1236 16.9972 81.9389 16.7188 82.8537 16.5994C83.3509 16.5398 84.6832 16.4006 84.8821 16.1619V17.2358C84.8821 18.1903 84.1264 19.125 82.7344 19.125ZM88.1969 20H89.3702V15.2273C89.3702 14.1087 90.1855 13.3182 91.1003 13.3182C91.9902 13.3182 92.6117 13.8999 92.6117 14.7699V20H93.8049V15.0284C93.8049 14.044 94.4213 13.3182 95.4952 13.3182C96.3304 13.3182 97.0463 13.7607 97.0463 14.8892V20H98.2196V14.8892C98.2196 13.0945 97.2551 12.2642 95.8929 12.2642C94.7992 12.2642 93.9988 12.7663 93.606 13.5568H93.5265C93.1486 12.7415 92.4824 12.2642 91.4782 12.2642C90.4838 12.2642 89.748 12.7415 89.4299 13.5568H89.3304V12.3636H88.1969V20Z" fill="#fff"/></svg>