<svg width="554" height="264" viewBox="0 0 554 264" fill="none" xmlns="http://www.w3.org/2000/svg"><path d="M11.6477 175.17H80.1136V205H96.875V175.17H116.761V159.545H96.875V59.5455H75.5682L11.6477 160.682V175.17ZM80.1136 159.545H30.6818V158.409L78.9773 81.9886H80.1136V159.545Z" fill="#fff"/><circle cx="276.999" cy="131.999" r="90.316" fill="#1B1C1E" stroke="#1B1C1E" stroke-width="27.79"/><path d="M213.308 112.715C188.66 118.23 172.789 126.87 172.789 136.583C172.789 153.236 219.446 166.736 277 166.736C334.553 166.736 381.21 153.236 381.21 136.583C381.21 127.259 366.587 118.925 343.615 113.393" stroke="gold" stroke-width="13.895"/><path d="M353.42 132C353.42 122.197 351.574 112.824 348.211 104.211M200.578 132C200.578 122.197 202.424 112.824 205.788 104.211" stroke="#1B1C1E" stroke-width="20.842"/><circle cx="276.999" cy="131.999" r="69.474" fill="#1B1C1E" stroke="#fff" stroke-width="13.895"/><path d="M381.21 136.582C381.21 153.235 334.553 166.735 277 166.735C219.446 166.735 172.789 153.235 172.789 136.582" stroke="#1B1C1E" stroke-width="27.79"/><path d="M381.21 136.582C381.21 153.235 334.553 166.735 277 166.735C219.446 166.735 172.789 153.235 172.789 136.582" stroke="gold" stroke-width="13.895"/><path d="M436.648 175.17H505.114V205H521.875V175.17H541.761V159.545H521.875V59.5455H500.568L436.648 160.682V175.17ZM505.114 159.545H455.682V158.409L503.977 81.9886H505.114V159.545Z" fill="#fff"/></svg>