<svg width="48" height="48" viewBox="0 0 48 48" fill="none" xmlns="http://www.w3.org/2000/svg"><rect width="48" height="48" rx="24" fill="#1B1C1E" fill-opacity=".64"/><path d="M33.541 23.1592L19.5411 14.1592C19.2344 13.959 18.8379 13.9483 18.5215 14.1221C18.1992 14.2978 18 14.6338 18 15V33C18 33.3662 18.1992 33.7022 18.5215 33.878C18.6699 33.9591 18.836 34.0001 19 34.0001C19.1875 34.0001 19.377 33.9473 19.5411 33.8409L33.541 24.8409C33.8262 24.6573 34 24.3399 34 24C34 23.6602 33.8262 23.3429 33.541 23.1592Z" fill="#000"/><path d="M33.541 23.1592L19.5411 14.1592C19.2344 13.959 18.8379 13.9483 18.5215 14.1221C18.1992 14.2978 18 14.6338 18 15V33C18 33.3662 18.1992 33.7022 18.5215 33.878C18.6699 33.9591 18.836 34.0001 19 34.0001C19.1875 34.0001 19.377 33.9473 19.5411 33.8409L33.541 24.8409C33.8262 24.6573 34 24.3399 34 24C34 23.6602 33.8262 23.3429 33.541 23.1592Z" fill="#fff"/></svg>