<svg width="32" height="33" viewBox="0 0 32 33" fill="none" xmlns="http://www.w3.org/2000/svg"><path d="M16 32.75C24.8366 32.75 32 25.5866 32 16.75C32 7.91344 24.8366 0.75 16 0.75C7.16344 0.75 0 7.91344 0 16.75C0 25.5866 7.16344 32.75 16 32.75Z" fill="url(#paint0_linear)"/><path d="M16 32.75C24.8366 32.75 32 25.5866 32 16.75C32 7.91344 24.8366 0.75 16 0.75C7.16344 0.75 0 7.91344 0 16.75C0 25.5866 7.16344 32.75 16 32.75Z" fill="#069AED"/><path d="M5.95973 17.5335C7.83013 16.5033 9.918 15.6434 11.8688 14.7791C15.2249 13.3635 18.5944 11.9725 21.9979 10.6774C22.66 10.4567 23.8499 10.241 23.9665 11.2223C23.9026 12.6113 23.6398 13.9923 23.4596 15.3732C23.0021 18.41 22.4732 21.4364 21.9576 24.4632C21.7799 25.4715 20.5169 25.9933 19.7088 25.3481C17.7666 24.0363 15.8096 22.7372 13.8922 21.3949C13.2642 20.7568 13.8466 19.8403 14.4075 19.3845C16.0071 17.8081 17.7035 16.4688 19.2195 14.8109C19.6284 13.8235 18.4202 14.6557 18.0216 14.9107C15.8318 16.4198 13.6955 18.021 11.3867 19.3472C10.2074 19.9964 8.83282 19.4416 7.65402 19.0794C6.5971 18.6418 5.04829 18.2009 5.95962 17.5337L5.95973 17.5335Z" fill="#fff"/><defs><linearGradient id="paint0_linear" x1="21.335" y1="6.084" x2="13.335" y2="24.75" gradientUnits="userSpaceOnUse"><stop stop-color="#37AEE2"/><stop offset="1" stop-color="#1E96C8"/></linearGradient></defs></svg>