<svg width="32" height="33" viewBox="0 0 32 33" fill="none" xmlns="http://www.w3.org/2000/svg"><path d="M16 32.75C24.8366 32.75 32 25.5866 32 16.75C32 7.91344 24.8366 0.75 16 0.75C7.16344 0.75 0 7.91344 0 16.75C0 25.5866 7.16344 32.75 16 32.75Z" fill="url(#paint0_linear)"/><path d="M16 32.75C24.8366 32.75 32 25.5866 32 16.75C32 7.91344 24.8366 0.75 16 0.75C7.16344 0.75 0 7.91344 0 16.75C0 25.5866 7.16344 32.75 16 32.75Z" fill="#069AED"/><path fill-rule="evenodd" clip-rule="evenodd" d="M17.3507 9.80344C17.3507 9.83512 17.5488 9.85687 17.8368 9.85687C18.1248 9.85687 18.3228 9.87862 18.3228 9.91031C18.3228 9.93969 18.4443 9.96374 18.5928 9.96374C18.7413 9.96374 18.8628 9.98779 18.8628 10.0172C18.8628 10.0466 18.9844 10.0706 19.1329 10.0706C19.2814 10.0706 19.4029 10.0947 19.4029 10.124C19.4029 10.1534 19.5001 10.1775 19.6189 10.1775C19.7377 10.1775 19.8349 10.2015 19.8349 10.2309C19.8349 10.2603 19.9078 10.2844 19.9969 10.2844C20.086 10.2844 20.1589 10.3084 20.1589 10.3378C20.1589 10.3672 20.2318 10.3912 20.3209 10.3912C20.4101 10.3912 20.483 10.4153 20.483 10.4447C20.483 10.474 20.5316 10.4981 20.591 10.4981C20.6504 10.4981 20.699 10.5221 20.699 10.5515C20.699 10.5809 20.7719 10.605 20.861 10.605C20.9501 10.605 21.023 10.629 21.023 10.6584C21.023 10.6878 21.0716 10.7118 21.131 10.7118C21.1904 10.7118 21.239 10.7359 21.239 10.7653C21.239 10.7947 21.2876 10.8187 21.347 10.8187C21.4064 10.8187 21.455 10.8427 21.455 10.8721C21.455 10.9015 21.4983 10.9256 21.5511 10.9256C21.604 10.9256 21.6822 10.9737 21.725 11.0324C21.7679 11.0912 21.8461 11.1393 21.899 11.1393C21.9518 11.1393 21.9951 11.1634 21.9951 11.1927C21.9951 11.2221 22.0383 11.2462 22.0911 11.2462C22.144 11.2462 22.2223 11.2943 22.2651 11.3531C22.3079 11.4118 22.3759 11.4599 22.4162 11.4599C22.4566 11.4599 22.5829 11.5561 22.6971 11.6737C22.8113 11.7912 22.9314 11.8874 22.9641 11.8874C23.0415 11.8874 23.6152 12.455 23.6152 12.5317C23.6152 12.564 23.7124 12.6828 23.8312 12.7958C23.95 12.9088 24.0472 13.0338 24.0472 13.0737C24.0472 13.1136 24.0958 13.1809 24.1552 13.2233C24.2146 13.2657 24.2632 13.3431 24.2632 13.3954C24.2632 13.4477 24.2875 13.4905 24.3172 13.4905C24.3469 13.4905 24.3712 13.5333 24.3712 13.5855C24.3712 13.6378 24.4198 13.7153 24.4792 13.7576C24.5386 13.8 24.5872 13.8774 24.5872 13.9297C24.5872 13.982 24.6115 14.0248 24.6412 14.0248C24.6709 14.0248 24.6952 14.0969 24.6952 14.1851C24.6952 14.2733 24.7196 14.3454 24.7493 14.3454C24.7841 14.3454 24.8033 13.7658 24.8033 12.7132V11.081L24.9358 10.9499C25.1112 10.7763 25.3594 10.7763 25.5347 10.9499L25.6673 11.081V15.4919C25.6673 18.3968 25.6489 19.9027 25.6133 19.9027C25.5836 19.9027 25.5593 19.9748 25.5593 20.063C25.5593 20.1511 25.535 20.2233 25.5053 20.2233C25.4756 20.2233 25.4513 20.2714 25.4513 20.3302C25.4513 20.3889 25.427 20.437 25.3973 20.437C25.3676 20.437 25.3433 20.4851 25.3433 20.5439C25.3433 20.6027 25.319 20.6508 25.2893 20.6508C25.2596 20.6508 25.2353 20.6872 25.2353 20.7318C25.2353 20.8303 24.4553 21.6126 24.357 21.6126C24.3185 21.6126 24.252 21.6607 24.2092 21.7195C24.1664 21.7782 24.0935 21.8263 24.0472 21.8263C24.0009 21.8263 23.928 21.8744 23.8852 21.9332C23.8424 21.992 23.7641 22.0401 23.7112 22.0401C23.6584 22.0401 23.6152 22.0641 23.6152 22.0935C23.6152 22.1229 23.5666 22.1469 23.5072 22.1469C23.4478 22.1469 23.3992 22.171 23.3992 22.2004C23.3992 22.2298 23.3506 22.2538 23.2912 22.2538C23.2317 22.2538 23.1831 22.2779 23.1831 22.3073C23.1831 22.3366 23.1345 22.3607 23.0751 22.3607C23.0157 22.3607 22.9671 22.3847 22.9671 22.4141C22.9671 22.4435 22.9185 22.4676 22.8591 22.4676C22.7997 22.4676 22.7511 22.4916 22.7511 22.521C22.7511 22.5504 22.6782 22.5744 22.5891 22.5744C22.5 22.5744 22.4271 22.5985 22.4271 22.6279C22.4271 22.6573 22.3785 22.6813 22.3191 22.6813C22.2597 22.6813 22.2111 22.7053 22.2111 22.7347C22.2111 22.7641 22.1382 22.7882 22.0491 22.7882C21.96 22.7882 21.8871 22.8122 21.8871 22.8416C21.8871 22.871 21.8142 22.895 21.725 22.895C21.6359 22.895 21.563 22.9191 21.563 22.9485C21.563 22.9779 21.4658 23.0019 21.347 23.0019C21.2282 23.0019 21.131 23.026 21.131 23.0553C21.131 23.0847 21.0581 23.1088 20.969 23.1088C20.8799 23.1088 20.807 23.1328 20.807 23.1622C20.807 23.1916 20.6855 23.2156 20.537 23.2156C20.3885 23.2156 20.2669 23.2397 20.2669 23.2691C20.2669 23.2985 20.1454 23.3225 19.9969 23.3225C19.8484 23.3225 19.7269 23.3466 19.7269 23.376C19.7269 23.4053 19.6054 23.4294 19.4569 23.4294C19.3084 23.4294 19.1869 23.4534 19.1869 23.4828C19.1869 23.514 19.0069 23.5363 18.7548 23.5363C18.5028 23.5363 18.3228 23.5585 18.3228 23.5897C18.3228 23.6223 18.0708 23.6431 17.6748 23.6431C17.2788 23.6431 17.0267 23.6639 17.0267 23.6966C17.0267 23.7303 16.6487 23.75 16.0007 23.75C15.3526 23.75 14.9746 23.7303 14.9746 23.6966C14.9746 23.6639 14.7225 23.6431 14.3265 23.6431C13.9305 23.6431 13.6785 23.6223 13.6785 23.5897C13.6785 23.5585 13.4985 23.5363 13.2465 23.5363C12.9944 23.5363 12.8144 23.514 12.8144 23.4828C12.8144 23.4531 12.6704 23.4294 12.4904 23.4294C12.3104 23.4294 12.1664 23.4057 12.1664 23.376C12.1664 23.3466 12.0449 23.3225 11.8964 23.3225C11.7479 23.3225 11.6263 23.2985 11.6263 23.2691C11.6263 23.2397 11.5291 23.2156 11.4103 23.2156C11.2915 23.2156 11.1943 23.1916 11.1943 23.1622C11.1943 23.1328 11.1214 23.1088 11.0323 23.1088C10.9432 23.1088 10.8703 23.0847 10.8703 23.0553C10.8703 23.026 10.7731 23.0019 10.6543 23.0019C10.5355 23.0019 10.4383 22.9779 10.4383 22.9485C10.4383 22.9191 10.3654 22.895 10.2763 22.895C10.1871 22.895 10.1142 22.871 10.1142 22.8416C10.1142 22.8122 10.0413 22.7882 9.95223 22.7882C9.86313 22.7882 9.79022 22.7641 9.79022 22.7347C9.79022 22.7053 9.74162 22.6813 9.68221 22.6813C9.62281 22.6813 9.57421 22.6573 9.57421 22.6279C9.57421 22.5985 9.5013 22.5744 9.4122 22.5744C9.32309 22.5744 9.25019 22.5504 9.25019 22.521C9.25019 22.4916 9.20158 22.4676 9.14218 22.4676C9.08277 22.4676 9.03417 22.4435 9.03417 22.4141C9.03417 22.3847 8.98557 22.3607 8.92616 22.3607C8.86676 22.3607 8.81816 22.3366 8.81816 22.3073C8.81816 22.2779 8.76955 22.2538 8.71015 22.2538C8.65074 22.2538 8.60214 22.2298 8.60214 22.2004C8.60214 22.171 8.55354 22.1469 8.49413 22.1469C8.43473 22.1469 8.38613 22.1229 8.38613 22.0935C8.38613 22.0641 8.34287 22.0401 8.29005 22.0401C8.23718 22.0401 8.15893 21.992 8.11611 21.9332C8.07328 21.8744 8.00038 21.8263 7.9541 21.8263C7.90781 21.8263 7.83491 21.7782 7.79208 21.7195C7.74926 21.6607 7.68278 21.6126 7.64428 21.6126C7.55306 21.6126 6.76601 20.8338 6.76601 20.7436C6.76601 20.7055 6.71741 20.6397 6.65801 20.5973C6.5986 20.555 6.55 20.4775 6.55 20.4252C6.55 20.373 6.5257 20.3302 6.496 20.3302C6.46629 20.3302 6.44199 20.258 6.44199 20.1698C6.44199 20.0817 6.41769 20.0095 6.38799 20.0095C6.3524 20.0095 6.33398 18.4858 6.33398 15.5453V11.081L6.46656 10.9499C6.59709 10.8207 6.87402 10.7679 6.87402 10.8721C6.87402 10.9015 6.9122 10.9256 6.95886 10.9256C7.18741 10.9256 7.19804 11.0027 7.19804 12.6584C7.19804 13.6762 7.21727 14.2385 7.25205 14.2385C7.28175 14.2385 7.30605 14.1905 7.30605 14.1317C7.30605 14.0729 7.33035 14.0248 7.36006 14.0248C7.38976 14.0248 7.41406 13.9767 7.41406 13.9179C7.41406 13.8592 7.43836 13.8111 7.46806 13.8111C7.49776 13.8111 7.52207 13.7683 7.52207 13.716C7.52207 13.6637 7.57067 13.5863 7.63007 13.5439C7.68948 13.5015 7.73808 13.4294 7.73808 13.3836C7.73808 13.3378 7.78668 13.2657 7.84609 13.2233C7.90549 13.1809 7.9541 13.1136 7.9541 13.0737C7.9541 13.0338 8.0513 12.9088 8.17011 12.7958C8.28892 12.6828 8.38613 12.564 8.38613 12.5317C8.38613 12.455 8.95981 11.8874 9.03725 11.8874C9.06992 11.8874 9.19003 11.7912 9.30419 11.6737C9.41835 11.5561 9.54472 11.4599 9.58506 11.4599C9.6254 11.4599 9.69339 11.4118 9.73622 11.3531C9.77904 11.2943 9.85195 11.2462 9.89823 11.2462C9.94451 11.2462 10.0174 11.1981 10.0602 11.1393C10.1031 11.0805 10.1813 11.0324 10.2342 11.0324C10.287 11.0324 10.3303 11.0084 10.3303 10.979C10.3303 10.9496 10.3789 10.9256 10.4383 10.9256C10.4977 10.9256 10.5463 10.9015 10.5463 10.8721C10.5463 10.8427 10.5949 10.8187 10.6543 10.8187C10.7137 10.8187 10.7623 10.7947 10.7623 10.7653C10.7623 10.7359 10.8109 10.7118 10.8703 10.7118C10.9297 10.7118 10.9783 10.6878 10.9783 10.6584C10.9783 10.629 11.0269 10.605 11.0863 10.605C11.1457 10.605 11.1943 10.5809 11.1943 10.5515C11.1943 10.5221 11.2672 10.4981 11.3563 10.4981C11.4454 10.4981 11.5183 10.474 11.5183 10.4447C11.5183 10.4153 11.5912 10.3912 11.6804 10.3912C11.7695 10.3912 11.8424 10.3672 11.8424 10.3378C11.8424 10.3084 11.9153 10.2844 12.0044 10.2844C12.0935 10.2844 12.1664 10.2603 12.1664 10.2309C12.1664 10.2015 12.2636 10.1775 12.3824 10.1775C12.5012 10.1775 12.5984 10.1534 12.5984 10.124C12.5984 10.0947 12.7199 10.0706 12.8684 10.0706C13.0169 10.0706 13.1385 10.0466 13.1385 10.0172C13.1385 9.98779 13.26 9.96374 13.4085 9.96374C13.557 9.96374 13.6785 9.93969 13.6785 9.91031C13.6785 9.87862 13.8765 9.85687 14.1645 9.85687C14.4525 9.85687 14.6506 9.83512 14.6506 9.80344C14.6506 9.76924 15.1366 9.75 16.0007 9.75C16.8647 9.75 17.3507 9.76924 17.3507 9.80344ZM10.1142 15.521C10.1736 15.521 10.2223 15.4969 10.2223 15.4676C10.2223 15.4323 12.1664 15.4141 15.9466 15.4141C19.7269 15.4141 21.671 15.4323 21.671 15.4676C21.671 15.4969 21.7439 15.521 21.8331 15.521C21.9222 15.521 21.9951 15.545 21.9951 15.5744C21.9951 15.6038 22.068 15.6279 22.1571 15.6279C22.2462 15.6279 22.3191 15.6519 22.3191 15.6813C22.3191 15.7107 22.3559 15.7347 22.401 15.7347C22.5077 15.7347 23.2912 16.51 23.2912 16.6156C23.2912 16.6601 23.3155 16.6966 23.3452 16.6966C23.3749 16.6966 23.3992 16.7447 23.3992 16.8034C23.3992 16.8622 23.4235 16.9103 23.4532 16.9103C23.4829 16.9103 23.5072 16.9824 23.5072 17.0706C23.5072 17.1588 23.5315 17.2309 23.5612 17.2309C23.5909 17.2309 23.6152 17.3511 23.6152 17.4981C23.6152 17.645 23.6395 17.7653 23.6692 17.7653C23.6989 17.7653 23.7232 17.8374 23.7232 17.9256C23.7232 18.0137 23.6989 18.0859 23.6692 18.0859C23.6395 18.0859 23.6152 18.2061 23.6152 18.3531C23.6152 18.5 23.5909 18.6202 23.5612 18.6202C23.5315 18.6202 23.5072 18.6924 23.5072 18.7805C23.5072 18.8687 23.4829 18.9408 23.4532 18.9408C23.4235 18.9408 23.3992 18.9889 23.3992 19.0477C23.3992 19.1065 23.3749 19.1546 23.3452 19.1546C23.3155 19.1546 23.2912 19.191 23.2912 19.2356C23.2912 19.2802 23.1093 19.4966 22.887 19.7165C22.6647 19.9364 22.446 20.1164 22.401 20.1164C22.3559 20.1164 22.3191 20.1405 22.3191 20.1698C22.3191 20.1992 22.2705 20.2233 22.2111 20.2233C22.1517 20.2233 22.1031 20.2473 22.1031 20.2767C22.1031 20.3061 22.0302 20.3302 21.9411 20.3302C21.852 20.3302 21.779 20.3542 21.779 20.3836C21.779 20.4189 19.8169 20.437 16.0007 20.437C12.1844 20.437 10.2223 20.4189 10.2223 20.3836C10.2223 20.3542 10.1493 20.3302 10.0602 20.3302C9.97113 20.3302 9.89823 20.3061 9.89823 20.2767C9.89823 20.2473 9.84963 20.2233 9.79022 20.2233C9.73082 20.2233 9.68221 20.1992 9.68221 20.1698C9.68221 20.1405 9.64339 20.1164 9.59586 20.1164C9.54839 20.1164 9.44141 20.0443 9.35819 19.9561C9.27497 19.8679 9.17841 19.7958 9.14364 19.7958C9.05782 19.7958 8.92616 19.6596 8.92616 19.5709C8.92616 19.5312 8.87756 19.4641 8.81816 19.4218C8.75875 19.3794 8.71015 19.302 8.71015 19.2496C8.71015 19.1974 8.68585 19.1546 8.65614 19.1546C8.62644 19.1546 8.60214 19.1065 8.60214 19.0477C8.60214 18.9889 8.57784 18.9408 8.54814 18.9408C8.51843 18.9408 8.49413 18.8927 8.49413 18.834C8.49413 18.7752 8.46983 18.7271 8.44013 18.7271C8.41043 18.7271 8.38613 18.6069 8.38613 18.4599C8.38613 18.313 8.36182 18.1927 8.33212 18.1927C8.3021 18.1927 8.27812 18.0502 8.27812 17.8721C8.27812 17.694 8.3021 17.5515 8.33212 17.5515C8.36182 17.5515 8.38613 17.4553 8.38613 17.3378C8.38613 17.2202 8.41043 17.124 8.44013 17.124C8.46983 17.124 8.49413 17.076 8.49413 17.0172C8.49413 16.9584 8.51843 16.9103 8.54814 16.9103C8.57784 16.9103 8.60214 16.8622 8.60214 16.8034C8.60214 16.7447 8.62644 16.6966 8.65614 16.6966C8.68585 16.6966 8.71015 16.6581 8.71015 16.6111C8.71015 16.5642 8.78305 16.4583 8.87216 16.376C8.96127 16.2936 9.03417 16.1878 9.03417 16.1408C9.03417 16.0938 9.073 16.0553 9.12052 16.0553C9.16799 16.0553 9.27497 15.9832 9.35819 15.895C9.44141 15.8069 9.54839 15.7347 9.59586 15.7347C9.64339 15.7347 9.68221 15.7107 9.68221 15.6813C9.68221 15.6519 9.75512 15.6279 9.84423 15.6279C9.93333 15.6279 10.0062 15.6038 10.0062 15.5744C10.0062 15.545 10.0548 15.521 10.1142 15.521Z" fill="#fff"/><path d="M10.9783 16.8569C10.9783 16.8863 11.0702 16.9103 11.1824 16.9103C11.3245 16.9103 11.4101 16.9427 11.4643 17.0172C11.5072 17.076 11.575 17.124 11.6151 17.124C11.714 17.124 11.8424 17.2577 11.8424 17.3607C11.8424 17.4069 11.8667 17.4447 11.8964 17.4447C11.9261 17.4447 11.9504 17.5168 11.9504 17.605C11.9504 17.6931 11.9747 17.7653 12.0044 17.7653C12.0341 17.7653 12.0584 17.8615 12.0584 17.979C12.0584 18.0966 12.0341 18.1927 12.0044 18.1927C11.9747 18.1927 11.9504 18.2408 11.9504 18.2996C11.9504 18.3584 11.9261 18.4065 11.8964 18.4065C11.8667 18.4065 11.8424 18.4436 11.8424 18.489C11.8424 18.596 11.6018 18.834 11.4938 18.834C11.4479 18.834 11.4103 18.858 11.4103 18.8874C11.4103 18.9168 11.3374 18.9408 11.2483 18.9408C11.1592 18.9408 11.0863 18.9649 11.0863 18.9943C11.0863 19.0237 11.0134 19.0477 10.9243 19.0477C10.8352 19.0477 10.7623 19.0237 10.7623 18.9943C10.7623 18.9649 10.701 18.9408 10.6261 18.9408C10.5331 18.9408 10.3961 18.848 10.1941 18.6481C9.92448 18.3814 9.89823 18.3343 9.89823 18.1182C9.89823 17.9807 9.86988 17.8679 9.83073 17.8499C9.77672 17.825 9.77672 17.8124 9.83073 17.7875C9.86788 17.7704 9.89823 17.6977 9.89823 17.6261C9.89823 17.444 10.441 16.9103 10.6261 16.9103C10.701 16.9103 10.7623 16.8863 10.7623 16.8569C10.7623 16.8275 10.8109 16.8034 10.8703 16.8034C10.9297 16.8034 10.9783 16.8275 10.9783 16.8569Z" fill="#fff"/><path d="M21.131 16.8569C21.131 16.8863 21.2039 16.9103 21.293 16.9103C21.3821 16.9103 21.455 16.9344 21.455 16.9637C21.455 16.9931 21.4923 17.0172 21.5378 17.0172C21.5834 17.0172 21.7049 17.1005 21.8078 17.2024C21.9108 17.3043 21.9951 17.4245 21.9951 17.4696C21.9951 17.5147 22.0194 17.5515 22.0491 17.5515C22.0799 17.5515 22.1031 17.7118 22.1031 17.9256C22.1031 18.1393 22.0799 18.2996 22.0491 18.2996C22.0194 18.2996 21.9951 18.3363 21.9951 18.3812C21.9951 18.519 21.528 18.9408 21.3754 18.9408C21.3004 18.9408 21.239 18.9649 21.239 18.9943C21.239 19.0237 21.1661 19.0477 21.077 19.0477C20.9879 19.0477 20.915 19.0237 20.915 18.9943C20.915 18.9649 20.8421 18.9408 20.753 18.9408C20.6639 18.9408 20.591 18.9168 20.591 18.8874C20.591 18.858 20.5534 18.834 20.5075 18.834C20.3995 18.834 20.1589 18.596 20.1589 18.489C20.1589 18.4436 20.1346 18.4065 20.1049 18.4065C20.0752 18.4065 20.0509 18.3584 20.0509 18.2996C20.0509 18.2408 20.0266 18.1927 19.9969 18.1927C19.9672 18.1927 19.9429 18.0725 19.9429 17.9256C19.9429 17.7786 19.9672 17.6584 19.9969 17.6584C20.0266 17.6584 20.0509 17.6103 20.0509 17.5515C20.0509 17.4927 20.0752 17.4447 20.1049 17.4447C20.1346 17.4447 20.1589 17.4075 20.1589 17.3621C20.1589 17.3167 20.2186 17.2205 20.2915 17.1484C20.3644 17.0762 20.4616 17.0172 20.5075 17.0172C20.5534 17.0172 20.591 16.9931 20.591 16.9637C20.591 16.9344 20.6639 16.9103 20.753 16.9103C20.8421 16.9103 20.915 16.8863 20.915 16.8569C20.915 16.8275 20.9636 16.8034 21.023 16.8034C21.0824 16.8034 21.131 16.8275 21.131 16.8569Z" fill="#fff"/><defs><linearGradient id="paint0_linear" x1="21.335" y1="6.084" x2="13.335" y2="24.75" gradientUnits="userSpaceOnUse"><stop stop-color="#37AEE2"/><stop offset="1" stop-color="#1E96C8"/></linearGradient></defs></svg>