<svg width="46" height="46" viewBox="0 0 46 46" fill="none" xmlns="http://www.w3.org/2000/svg"><path d="M30.9962 21.0833L20.7152 10.8023L23.4253 8.09216L38.3332 23L23.4253 37.9078L20.7152 35.1977L30.9962 24.9167H7.6665V21.0833H30.9962Z" fill="#000"/><path d="M31.3297 21.0833L21.0487 10.8023L23.7588 8.09216L38.6667 23L23.7588 37.9078L21.0487 35.1977L31.3297 24.9167H8V21.0833H31.3297Z" fill="#000"/><path d="M31.3297 20.9912L21.0487 10.7102L23.7588 8L38.6667 22.9078L23.7588 37.8157L21.0487 35.1055L31.3297 24.8245H8V20.9912H31.3297Z" fill="#000"/><path d="M31.3297 20.9912L21.0487 10.7102L23.7588 8L38.6667 22.9078L23.7588 37.8157L21.0487 35.1055L31.3297 24.8245H8V20.9912H31.3297Z" fill="#000"/><path d="M31.3297 20.9912L21.0487 10.7102L23.7588 8L38.6667 22.9078L23.7588 37.8157L21.0487 35.1055L31.3297 24.8245H8V20.9912H31.3297Z" fill="#000"/></svg>