<svg width="150" height="40" viewBox="0 0 150 40" fill="none" xmlns="http://www.w3.org/2000/svg"><path d="M9.45871 39.9439C5.83085 40.6597 4.03161 34.3515 3.58547 31.108C3.43728 30.1946 2.91651 28.4236 0.90936 28.4236C-1.09779 28.4236 0.61189 27.1933 2.24742 27.417C3.88296 27.6407 2.99085 26.6341 2.91651 24.8445C2.84217 23.055 4.70073 12.2058 7.15403 8.51489C9.60733 4.82394 11.0942 6.16611 16.2982 4.82395C21.5021 3.4818 34.8094 1.58038 41.2029 2.58701C47.5963 3.59363 63.6543 3.14626 71.1629 3.14626C78.6715 3.14626 91.2354 1.91593 97.5545 0.797461C103.874 -0.32101 125.73 -0.209161 136.287 0.797461C146.844 1.80408 141.119 3.14626 139.335 3.14626C137.551 3.14626 131.157 3.2581 125.73 3.14626C120.303 3.03441 95.919 3.48179 91.2354 4.82395C86.5518 6.16612 95.3986 6.6135 99.2644 6.6135C103.13 6.6135 110.639 5.94242 119.486 5.94242C128.332 5.94242 133.388 5.15949 137.848 5.94242C142.309 6.72535 141.342 6.8372 143.721 7.84382C146.1 8.85044 145.059 8.9623 147.587 9.74523C150.115 10.5282 150.561 10.3045 149.371 11.6466C148.182 12.9888 147.141 13.9954 145.059 15.002C142.978 16.0086 144.613 17.91 145.505 18.9167C146.397 19.9233 146.249 21.0417 145.505 21.3773C144.762 21.7128 145.059 22.3839 146.249 23.2787C147.438 24.1735 146.695 24.3972 148.776 26.7459C151.155 27.9763 148.776 28.871 148.33 28.9829C147.884 29.0947 143.275 30.6606 142.457 30.7724C141.64 30.8843 138.517 31.6672 135.618 31.6672C132.718 31.6672 126.251 34.1278 121.344 35.5818C116.437 37.0358 111.085 38.9372 106.922 38.9372C102.758 38.9372 81.7939 39.2728 76.3669 38.9372C70.9399 38.6017 38.8983 38.6017 32.3561 37.4832C25.814 36.3648 13.9935 39.0491 9.45871 39.9439Z" fill="gold"/></svg>