<svg width="18" height="19" viewBox="0 0 18 19" fill="none" xmlns="http://www.w3.org/2000/svg"><path d="M8.99933 12.4303C10.3414 12.4303 11.4293 11.3424 11.4293 10.0003C11.4293 8.65825 10.3414 7.57031 8.99933 7.57031C7.65728 7.57031 6.56934 8.65825 6.56934 10.0003C6.56934 11.3424 7.65728 12.4303 8.99933 12.4303Z" stroke="#fff" stroke-width="1.5" stroke-miterlimit="10" stroke-linecap="round" stroke-linejoin="round"/><path d="M16.4597 11.1305L16.4797 11.1405C17.0597 11.4705 17.2497 12.2105 16.9197 12.7905L15.3797 15.4605C15.0497 16.0405 14.3097 16.2305 13.7297 15.9005C13.3597 15.6805 12.8997 15.6805 12.5297 15.9005C12.4697 15.9305 12.4197 15.9705 12.3597 16.0005C11.9797 16.2105 11.7497 16.6105 11.7497 17.0405C11.7497 17.7105 11.2097 18.2505 10.5397 18.2505H7.4497C6.7797 18.2505 6.23967 17.7105 6.23967 17.0405C6.23967 16.6105 6.0097 16.2105 5.6397 16.0005C5.5797 15.9705 5.52969 15.9405 5.46969 15.9005C5.09969 15.6805 4.63969 15.6805 4.25969 15.8905C3.67969 16.2205 2.9497 16.0305 2.6097 15.4505L1.06969 12.7805C0.739692 12.2005 0.929694 11.4705 1.50969 11.1305L1.52968 11.1205C1.89968 10.9005 2.12969 10.5005 2.12969 10.0705C2.12969 10.0205 2.12969 9.96048 2.12969 9.91048C2.12969 9.48048 1.89968 9.08047 1.52968 8.86047L1.50969 8.85048C0.929694 8.52048 0.739692 7.78047 1.06969 7.20047L2.6097 4.53047C2.9397 3.95047 3.67969 3.76047 4.25969 4.09047C4.62969 4.31047 5.09969 4.31047 5.46969 4.08047C5.51969 4.05047 5.5797 4.01047 5.6397 3.98047C6.0097 3.77047 6.23967 3.37048 6.23967 2.94048C6.23967 2.27048 6.7797 1.73047 7.4497 1.73047H10.5397C11.2097 1.73047 11.7497 2.27048 11.7497 2.94048C11.7497 3.37048 11.9797 3.77047 12.3597 3.98047C12.4197 4.01047 12.4697 4.04047 12.5297 4.08047C12.8997 4.30047 13.3597 4.30047 13.7297 4.08047C14.3097 3.75047 15.0397 3.94048 15.3797 4.52048L16.9197 7.19048C17.2497 7.77048 17.0597 8.50047 16.4797 8.84047L16.4597 8.85048C16.0897 9.07048 15.8597 9.47048 15.8597 9.90048C15.8597 9.95048 15.8597 10.0105 15.8597 10.0605C15.8497 10.5105 16.0797 10.9105 16.4597 11.1305Z" stroke="#fff" stroke-width="1.5" stroke-miterlimit="10" stroke-linecap="round" stroke-linejoin="round"/></svg>