<svg width="18" height="18" viewBox="0 0 18 18" fill="none" xmlns="http://www.w3.org/2000/svg"><path d="M14.1742 2.86519L3.30674 6.87019C2.63924 7.11769 2.65424 8.06269 3.32924 8.28769L7.76174 9.76519C7.98674 9.84019 8.15925 10.0127 8.23425 10.2377L9.71175 14.6702C9.93675 15.3452 10.8817 15.3602 11.1292 14.6927L15.1342 3.82519C15.3517 3.22519 14.7742 2.64769 14.1742 2.86519Z" stroke="url(#paint0_radial)" stroke-width="1.5" stroke-miterlimit="10" stroke-linecap="round" stroke-linejoin="round"/><path d="M14.1742 2.86519L3.30674 6.87019C2.63924 7.11769 2.65424 8.06269 3.32924 8.28769L7.76174 9.76519C7.98674 9.84019 8.15925 10.0127 8.23425 10.2377L9.71175 14.6702C9.93675 15.3452 10.8817 15.3602 11.1292 14.6927L15.1342 3.82519C15.3517 3.22519 14.7742 2.64769 14.1742 2.86519Z" stroke="url(#paint1_radial)" stroke-width="1.5" stroke-miterlimit="10" stroke-linecap="round" stroke-linejoin="round"/><defs><radialGradient id="paint0_radial" cx="0" cy="0" r="1" gradientUnits="userSpaceOnUse" gradientTransform="matrix(-5.79671 17.77708 -43.40607 -14.15376 14.795 2.818)"><stop stop-color="#FA0362"/><stop offset="1" stop-color="#FF6239"/></radialGradient><radialGradient id="paint1_radial" cx="0" cy="0" r="1" gradientUnits="userSpaceOnUse" gradientTransform="matrix(0 12.3666 -9.39237 0 8.998 2.818)"><stop stop-color="#FF9D0B"/><stop offset="1" stop-color="#FFB91D" stop-opacity="0"/></radialGradient></defs></svg>