<svg width="94" height="78" viewBox="0 0 94 78" fill="none" xmlns="http://www.w3.org/2000/svg"><path d="M47 48C60.2548 48 71 37.2548 71 24C71 10.7452 60.2548 0 47 0C33.7452 0 23 10.7452 23 24C23 37.2548 33.7452 48 47 48Z" fill="url(#paint0_linear)"/><path d="M47 48C60.2548 48 71 37.2548 71 24C71 10.7452 60.2548 0 47 0C33.7452 0 23 10.7452 23 24C23 37.2548 33.7452 48 47 48Z" fill="#069AED"/><path fill-rule="evenodd" clip-rule="evenodd" d="M49.0251 13.5802C49.0251 13.6277 49.3222 13.6603 49.7542 13.6603C50.1862 13.6603 50.4832 13.6929 50.4832 13.7405C50.4832 13.7845 50.6655 13.8206 50.8883 13.8206C51.111 13.8206 51.2933 13.8567 51.2933 13.9008C51.2933 13.9448 51.4756 13.9809 51.6983 13.9809C51.9211 13.9809 52.1034 14.017 52.1034 14.0611C52.1034 14.1052 52.2492 14.1412 52.4274 14.1412C52.6056 14.1412 52.7514 14.1773 52.7514 14.2214C52.7514 14.2655 52.8608 14.3015 52.9944 14.3015C53.1281 14.3015 53.2374 14.3376 53.2374 14.3817C53.2374 14.4258 53.3468 14.4618 53.4804 14.4618C53.6141 14.4618 53.7235 14.4979 53.7235 14.542C53.7235 14.5861 53.7964 14.6221 53.8855 14.6221C53.9746 14.6221 54.0475 14.6582 54.0475 14.7023C54.0475 14.7464 54.1568 14.7824 54.2905 14.7824C54.4242 14.7824 54.5335 14.8185 54.5335 14.8626C54.5335 14.9067 54.6064 14.9427 54.6955 14.9427C54.7846 14.9427 54.8575 14.9788 54.8575 15.0229C54.8575 15.067 54.9304 15.1031 55.0196 15.1031C55.1087 15.1031 55.1816 15.1391 55.1816 15.1832C55.1816 15.2273 55.2465 15.2634 55.3257 15.2634C55.405 15.2634 55.5224 15.3355 55.5866 15.4237C55.6508 15.5118 55.7682 15.584 55.8475 15.584C55.9267 15.584 55.9916 15.62 55.9916 15.6641C55.9916 15.7082 56.0565 15.7443 56.1357 15.7443C56.215 15.7443 56.3324 15.8164 56.3966 15.9046C56.4609 15.9927 56.5629 16.0649 56.6234 16.0649C56.6839 16.0649 56.8734 16.2092 57.0447 16.3855C57.2159 16.5618 57.3961 16.7061 57.4451 16.7061C57.5613 16.7061 58.4218 17.5576 58.4218 17.6725C58.4218 17.721 58.5676 17.8993 58.7458 18.0687C58.924 18.2381 59.0698 18.4257 59.0698 18.4856C59.0698 18.5455 59.1427 18.6464 59.2318 18.7099C59.3209 18.7735 59.3939 18.8896 59.3939 18.9681C59.3939 19.0465 59.4303 19.1107 59.4749 19.1107C59.5194 19.1107 59.5559 19.1749 59.5559 19.2533C59.5559 19.3317 59.6288 19.4479 59.7179 19.5115C59.807 19.575 59.8799 19.6912 59.8799 19.7696C59.8799 19.848 59.9163 19.9122 59.9609 19.9122C60.0054 19.9122 60.0419 20.0204 60.0419 20.1527C60.0419 20.2849 60.0784 20.3931 60.1229 20.3931C60.1752 20.3931 60.2039 19.5236 60.2039 17.9449V15.4965L60.4028 15.2998C60.6658 15.0395 61.0381 15.0395 61.3011 15.2998L61.5 15.4965V22.1128C61.5 26.4701 61.4724 28.729 61.419 28.729C61.3744 28.729 61.338 28.8372 61.338 28.9695C61.338 29.1017 61.3015 29.2099 61.257 29.2099C61.2124 29.2099 61.176 29.2821 61.176 29.3702C61.176 29.4584 61.1395 29.5305 61.095 29.5305C61.0504 29.5305 61.014 29.6027 61.014 29.6908C61.014 29.779 60.9775 29.8511 60.933 29.8511C60.8884 29.8511 60.852 29.9058 60.852 29.9727C60.852 30.1205 59.6819 31.2939 59.5346 31.2939C59.4768 31.2939 59.3771 31.366 59.3128 31.4542C59.2486 31.5424 59.1393 31.6145 59.0698 31.6145C59.0004 31.6145 58.8911 31.6866 58.8268 31.7748C58.7626 31.863 58.6452 31.9351 58.5659 31.9351C58.4867 31.9351 58.4218 31.9712 58.4218 32.0153C58.4218 32.0594 58.3489 32.0954 58.2598 32.0954C58.1707 32.0954 58.0978 32.1315 58.0978 32.1756C58.0978 32.2197 58.0249 32.2557 57.9358 32.2557C57.8466 32.2557 57.7737 32.2918 57.7737 32.3359C57.7737 32.38 57.7008 32.416 57.6117 32.416C57.5226 32.416 57.4497 32.4521 57.4497 32.4962C57.4497 32.5403 57.3768 32.5763 57.2877 32.5763C57.1986 32.5763 57.1257 32.6124 57.1257 32.6565C57.1257 32.7006 57.0163 32.7366 56.8827 32.7366C56.749 32.7366 56.6397 32.7727 56.6397 32.8168C56.6397 32.8609 56.5668 32.8969 56.4777 32.8969C56.3885 32.8969 56.3156 32.933 56.3156 32.9771C56.3156 33.0212 56.2063 33.0573 56.0726 33.0573C55.939 33.0573 55.8296 33.0933 55.8296 33.1374C55.8296 33.1815 55.7203 33.2176 55.5866 33.2176C55.4529 33.2176 55.3436 33.2536 55.3436 33.2977C55.3436 33.3418 55.1978 33.3779 55.0196 33.3779C54.8413 33.3779 54.6955 33.4139 54.6955 33.458C54.6955 33.5021 54.5862 33.5382 54.4525 33.5382C54.3189 33.5382 54.2095 33.5742 54.2095 33.6183C54.2095 33.6624 54.0272 33.6985 53.8045 33.6985C53.5817 33.6985 53.3994 33.7345 53.3994 33.7786C53.3994 33.8227 53.2172 33.8588 52.9944 33.8588C52.7716 33.8588 52.5894 33.8948 52.5894 33.9389C52.5894 33.983 52.4071 34.0191 52.1844 34.0191C51.9616 34.0191 51.7793 34.0552 51.7793 34.0992C51.7793 34.146 51.5093 34.1794 51.1313 34.1794C50.7532 34.1794 50.4832 34.2128 50.4832 34.2595C50.4832 34.3085 50.1052 34.3397 49.5112 34.3397C48.9172 34.3397 48.5391 34.3709 48.5391 34.4198C48.5391 34.4705 47.9721 34.5 47 34.5C46.0279 34.5 45.4609 34.4705 45.4609 34.4198C45.4609 34.3709 45.0828 34.3397 44.4888 34.3397C43.8948 34.3397 43.5168 34.3085 43.5168 34.2595C43.5168 34.2128 43.2468 34.1794 42.8687 34.1794C42.4907 34.1794 42.2207 34.146 42.2207 34.0992C42.2207 34.0547 42.0046 34.0191 41.7346 34.0191C41.4646 34.0191 41.2486 33.9835 41.2486 33.9389C41.2486 33.8948 41.0663 33.8588 40.8436 33.8588C40.6208 33.8588 40.4385 33.8227 40.4385 33.7786C40.4385 33.7345 40.2927 33.6985 40.1145 33.6985C39.9363 33.6985 39.7905 33.6624 39.7905 33.6183C39.7905 33.5742 39.6811 33.5382 39.5475 33.5382C39.4138 33.5382 39.3045 33.5021 39.3045 33.458C39.3045 33.4139 39.1587 33.3779 38.9804 33.3779C38.8022 33.3779 38.6564 33.3418 38.6564 33.2977C38.6564 33.2536 38.5471 33.2176 38.4134 33.2176C38.2797 33.2176 38.1704 33.1815 38.1704 33.1374C38.1704 33.0933 38.061 33.0573 37.9274 33.0573C37.7937 33.0573 37.6844 33.0212 37.6844 32.9771C37.6844 32.933 37.6115 32.8969 37.5223 32.8969C37.4332 32.8969 37.3603 32.8609 37.3603 32.8168C37.3603 32.7727 37.251 32.7366 37.1173 32.7366C36.9837 32.7366 36.8743 32.7006 36.8743 32.6565C36.8743 32.6124 36.8014 32.5763 36.7123 32.5763C36.6232 32.5763 36.5503 32.5403 36.5503 32.4962C36.5503 32.4521 36.4774 32.416 36.3883 32.416C36.2992 32.416 36.2263 32.38 36.2263 32.3359C36.2263 32.2918 36.1534 32.2557 36.0642 32.2557C35.9751 32.2557 35.9022 32.2197 35.9022 32.1756C35.9022 32.1315 35.8293 32.0954 35.7402 32.0954C35.6511 32.0954 35.5782 32.0594 35.5782 32.0153C35.5782 31.9712 35.5133 31.9351 35.4341 31.9351C35.3548 31.9351 35.2374 31.863 35.1732 31.7748C35.1089 31.6866 34.9996 31.6145 34.9302 31.6145C34.8607 31.6145 34.7514 31.5424 34.6872 31.4542C34.6229 31.366 34.5232 31.2939 34.4654 31.2939C34.3286 31.2939 33.148 30.1257 33.148 29.9904C33.148 29.9332 33.0751 29.8346 32.986 29.771C32.8969 29.7074 32.824 29.5913 32.824 29.5128C32.824 29.4344 32.7876 29.3702 32.743 29.3702C32.6985 29.3702 32.662 29.262 32.662 29.1298C32.662 28.9975 32.6256 28.8893 32.581 28.8893C32.5276 28.8893 32.5 26.6038 32.5 22.193V15.4965L32.6989 15.2998C32.8947 15.106 33.3101 15.0268 33.3101 15.1832C33.3101 15.2273 33.3673 15.2634 33.4373 15.2634C33.7801 15.2634 33.7961 15.379 33.7961 17.8626C33.7961 19.3893 33.8249 20.2328 33.8771 20.2328C33.9216 20.2328 33.9581 20.1607 33.9581 20.0725C33.9581 19.9844 33.9946 19.9122 34.0391 19.9122C34.0837 19.9122 34.1201 19.8401 34.1201 19.7519C34.1201 19.6637 34.1566 19.5916 34.2011 19.5916C34.2457 19.5916 34.2821 19.5274 34.2821 19.449C34.2821 19.3705 34.355 19.2544 34.4441 19.1908C34.5332 19.1273 34.6061 19.0191 34.6061 18.9504C34.6061 18.8817 34.6791 18.7735 34.7682 18.7099C34.8573 18.6464 34.9302 18.5455 34.9302 18.4856C34.9302 18.4257 35.076 18.2381 35.2542 18.0687C35.4324 17.8993 35.5782 17.721 35.5782 17.6725C35.5782 17.5576 36.4387 16.7061 36.5549 16.7061C36.6039 16.7061 36.7841 16.5618 36.9553 16.3855C37.1266 16.2092 37.3161 16.0649 37.3766 16.0649C37.4371 16.0649 37.5391 15.9927 37.6034 15.9046C37.6676 15.8164 37.7769 15.7443 37.8464 15.7443C37.9158 15.7443 38.0251 15.6721 38.0894 15.584C38.1536 15.4958 38.271 15.4237 38.3503 15.4237C38.4295 15.4237 38.4944 15.3876 38.4944 15.3435C38.4944 15.2994 38.5673 15.2634 38.6564 15.2634C38.7455 15.2634 38.8184 15.2273 38.8184 15.1832C38.8184 15.1391 38.8913 15.1031 38.9804 15.1031C39.0696 15.1031 39.1425 15.067 39.1425 15.0229C39.1425 14.9788 39.2154 14.9427 39.3045 14.9427C39.3936 14.9427 39.4665 14.9067 39.4665 14.8626C39.4665 14.8185 39.5394 14.7824 39.6285 14.7824C39.7176 14.7824 39.7905 14.7464 39.7905 14.7023C39.7905 14.6582 39.8999 14.6221 40.0335 14.6221C40.1672 14.6221 40.2765 14.5861 40.2765 14.542C40.2765 14.4979 40.3859 14.4618 40.5196 14.4618C40.6532 14.4618 40.7626 14.4258 40.7626 14.3817C40.7626 14.3376 40.8719 14.3015 41.0056 14.3015C41.1392 14.3015 41.2486 14.2655 41.2486 14.2214C41.2486 14.1773 41.3944 14.1412 41.5726 14.1412C41.7508 14.1412 41.8966 14.1052 41.8966 14.0611C41.8966 14.017 42.0789 13.9809 42.3017 13.9809C42.5244 13.9809 42.7067 13.9448 42.7067 13.9008C42.7067 13.8567 42.889 13.8206 43.1117 13.8206C43.3345 13.8206 43.5168 13.7845 43.5168 13.7405C43.5168 13.6929 43.8138 13.6603 44.2458 13.6603C44.6778 13.6603 44.9749 13.6277 44.9749 13.5802C44.9749 13.5289 45.7039 13.5 47 13.5C48.2961 13.5 49.0251 13.5289 49.0251 13.5802ZM38.1704 22.1565C38.2595 22.1565 38.3324 22.1204 38.3324 22.0763C38.3324 22.0234 41.2486 21.9962 46.919 21.9962C52.5894 21.9962 55.5056 22.0234 55.5056 22.0763C55.5056 22.1204 55.6149 22.1565 55.7486 22.1565C55.8823 22.1565 55.9916 22.1926 55.9916 22.2366C55.9916 22.2807 56.101 22.3168 56.2346 22.3168C56.3683 22.3168 56.4777 22.3529 56.4777 22.3969C56.4777 22.441 56.5329 22.4771 56.6005 22.4771C56.7605 22.4771 57.9358 23.64 57.9358 23.7983C57.9358 23.8652 57.9722 23.9198 58.0168 23.9198C58.0613 23.9198 58.0978 23.992 58.0978 24.0802C58.0978 24.1683 58.1342 24.2405 58.1788 24.2405C58.2233 24.2405 58.2598 24.3487 58.2598 24.4809C58.2598 24.6132 58.2962 24.7214 58.3408 24.7214C58.3853 24.7214 58.4218 24.9017 58.4218 25.1221C58.4218 25.3426 58.4582 25.5229 58.5028 25.5229C58.5473 25.5229 58.5838 25.6311 58.5838 25.7634C58.5838 25.8956 58.5473 26.0038 58.5028 26.0038C58.4582 26.0038 58.4218 26.1842 58.4218 26.4046C58.4218 26.625 58.3853 26.8053 58.3408 26.8053C58.2962 26.8053 58.2598 26.9135 58.2598 27.0458C58.2598 27.1781 58.2233 27.2863 58.1788 27.2863C58.1342 27.2863 58.0978 27.3584 58.0978 27.4466C58.0978 27.5347 58.0613 27.6069 58.0168 27.6069C57.9722 27.6069 57.9358 27.6615 57.9358 27.7284C57.9358 27.7952 57.6629 28.1198 57.3295 28.4498C56.9961 28.7797 56.668 29.0496 56.6005 29.0496C56.5329 29.0496 56.4777 29.0857 56.4777 29.1298C56.4777 29.1739 56.4047 29.2099 56.3156 29.2099C56.2265 29.2099 56.1536 29.246 56.1536 29.2901C56.1536 29.3342 56.0443 29.3702 55.9106 29.3702C55.777 29.3702 55.6676 29.4063 55.6676 29.4504C55.6676 29.5033 52.7244 29.5305 47 29.5305C41.2756 29.5305 38.3324 29.5033 38.3324 29.4504C38.3324 29.4063 38.223 29.3702 38.0894 29.3702C37.9557 29.3702 37.8464 29.3342 37.8464 29.2901C37.8464 29.246 37.7735 29.2099 37.6844 29.2099C37.5953 29.2099 37.5223 29.1739 37.5223 29.1298C37.5223 29.0857 37.4641 29.0496 37.3928 29.0496C37.3216 29.0496 37.1611 28.9414 37.0363 28.8092C36.9115 28.6769 36.7666 28.5687 36.7145 28.5687C36.5858 28.5687 36.3883 28.3645 36.3883 28.2314C36.3883 28.1719 36.3154 28.0712 36.2263 28.0076C36.1372 27.9441 36.0642 27.8279 36.0642 27.7495C36.0642 27.6711 36.0278 27.6069 35.9832 27.6069C35.9387 27.6069 35.9022 27.5347 35.9022 27.4466C35.9022 27.3584 35.8658 27.2863 35.8212 27.2863C35.7767 27.2863 35.7402 27.2141 35.7402 27.126C35.7402 27.0378 35.7038 26.9656 35.6592 26.9656C35.6147 26.9656 35.5782 26.7853 35.5782 26.5649C35.5782 26.3445 35.5418 26.1641 35.4972 26.1641C35.4522 26.1641 35.4162 25.9504 35.4162 25.6832C35.4162 25.4161 35.4522 25.2023 35.4972 25.2023C35.5418 25.2023 35.5782 25.058 35.5782 24.8817C35.5782 24.7053 35.6147 24.5611 35.6592 24.5611C35.7038 24.5611 35.7402 24.4889 35.7402 24.4008C35.7402 24.3126 35.7767 24.2405 35.8212 24.2405C35.8658 24.2405 35.9022 24.1683 35.9022 24.0802C35.9022 23.992 35.9387 23.9198 35.9832 23.9198C36.0278 23.9198 36.0642 23.8622 36.0642 23.7917C36.0642 23.7212 36.1736 23.5624 36.3073 23.4389C36.4409 23.3154 36.5503 23.1566 36.5503 23.0862C36.5503 23.0156 36.6085 22.958 36.6798 22.958C36.751 22.958 36.9115 22.8498 37.0363 22.7176C37.1611 22.5853 37.3216 22.4771 37.3928 22.4771C37.4641 22.4771 37.5223 22.441 37.5223 22.3969C37.5223 22.3529 37.6317 22.3168 37.7654 22.3168C37.899 22.3168 38.0084 22.2807 38.0084 22.2366C38.0084 22.1926 38.0813 22.1565 38.1704 22.1565Z" fill="#fff"/><path d="M39.4665 24.1603C39.4665 24.2044 39.6043 24.2405 39.7726 24.2405C39.9858 24.2405 40.1142 24.2891 40.1955 24.4008C40.2598 24.4889 40.3615 24.5611 40.4217 24.5611C40.57 24.5611 40.7626 24.7615 40.7626 24.9161C40.7626 24.9853 40.799 25.042 40.8436 25.042C40.8881 25.042 40.9246 25.1502 40.9246 25.2824C40.9246 25.4147 40.961 25.5229 41.0056 25.5229C41.0501 25.5229 41.0866 25.6672 41.0866 25.8435C41.0866 26.0198 41.0501 26.1641 41.0056 26.1641C40.961 26.1641 40.9246 26.2363 40.9246 26.3244C40.9246 26.4126 40.8881 26.4847 40.8436 26.4847C40.799 26.4847 40.7626 26.5404 40.7626 26.6086C40.7626 26.769 40.4018 27.126 40.2397 27.126C40.1708 27.126 40.1145 27.162 40.1145 27.2061C40.1145 27.2502 40.0052 27.2863 39.8715 27.2863C39.7378 27.2863 39.6285 27.3223 39.6285 27.3664C39.6285 27.4105 39.5191 27.4466 39.3855 27.4466C39.2518 27.4466 39.1425 27.4105 39.1425 27.3664C39.1425 27.3223 39.0505 27.2863 38.9382 27.2863C38.7987 27.2863 38.5932 27.147 38.2901 26.8472C37.8857 26.4471 37.8464 26.3764 37.8464 26.0523C37.8464 25.8461 37.8038 25.6769 37.7451 25.6498C37.6641 25.6124 37.6641 25.5937 37.7451 25.5563C37.8008 25.5306 37.8464 25.4216 37.8464 25.3141C37.8464 25.041 38.6605 24.2405 38.9382 24.2405C39.0505 24.2405 39.1425 24.2044 39.1425 24.1603C39.1425 24.1162 39.2154 24.0802 39.3045 24.0802C39.3936 24.0802 39.4665 24.1162 39.4665 24.1603Z" fill="#fff"/><path d="M54.6955 24.1603C54.6955 24.2044 54.8049 24.2405 54.9385 24.2405C55.0722 24.2405 55.1816 24.2765 55.1816 24.3206C55.1816 24.3647 55.2375 24.4008 55.3057 24.4008C55.3741 24.4008 55.5564 24.5258 55.7108 24.6787C55.8653 24.8314 55.9916 25.0118 55.9916 25.0794C55.9916 25.147 56.0281 25.2023 56.0726 25.2023C56.1189 25.2023 56.1536 25.4427 56.1536 25.7634C56.1536 26.084 56.1189 26.3244 56.0726 26.3244C56.0281 26.3244 55.9916 26.3795 55.9916 26.4467C55.9916 26.6535 55.291 27.2863 55.0622 27.2863C54.9496 27.2863 54.8575 27.3223 54.8575 27.3664C54.8575 27.4105 54.7482 27.4466 54.6145 27.4466C54.4809 27.4466 54.3715 27.4105 54.3715 27.3664C54.3715 27.3223 54.2622 27.2863 54.1285 27.2863C53.9948 27.2863 53.8855 27.2502 53.8855 27.2061C53.8855 27.162 53.8292 27.126 53.7603 27.126C53.5982 27.126 53.2374 26.769 53.2374 26.6086C53.2374 26.5404 53.201 26.4847 53.1564 26.4847C53.1119 26.4847 53.0754 26.4126 53.0754 26.3244C53.0754 26.2363 53.039 26.1641 52.9944 26.1641C52.9499 26.1641 52.9134 25.9838 52.9134 25.7634C52.9134 25.5429 52.9499 25.3626 52.9944 25.3626C53.039 25.3626 53.0754 25.2905 53.0754 25.2023C53.0754 25.1141 53.1119 25.042 53.1564 25.042C53.201 25.042 53.2374 24.9863 53.2374 24.9181C53.2374 24.85 53.3269 24.7057 53.4363 24.5975C53.5457 24.4893 53.6915 24.4008 53.7603 24.4008C53.8292 24.4008 53.8855 24.3647 53.8855 24.3206C53.8855 24.2765 53.9948 24.2405 54.1285 24.2405C54.2622 24.2405 54.3715 24.2044 54.3715 24.1603C54.3715 24.1162 54.4444 24.0802 54.5335 24.0802C54.6226 24.0802 54.6955 24.1162 54.6955 24.1603Z" fill="#fff"/><path d="M1.31667 65.1406H4.48855V74H6.0198V65.1406H9.19664V63.8182H1.31667V65.1406ZM13.0024 74.1541C14.6679 74.1541 15.8461 73.3338 16.1842 72.0909L14.7773 71.8374C14.5088 72.5582 13.8625 72.9261 13.0173 72.9261C11.7446 72.9261 10.8895 72.1009 10.8497 70.6293H16.2787V70.1023C16.2787 67.343 14.6281 66.2642 12.898 66.2642C10.7702 66.2642 9.36816 67.8849 9.36816 70.2315C9.36816 72.603 10.7503 74.1541 13.0024 74.1541ZM10.8547 69.5156C10.9143 68.4318 11.6998 67.4922 12.9079 67.4922C14.0613 67.4922 14.817 68.3473 14.822 69.5156H10.8547ZM19.4145 63.8182H17.928V74H19.4145V63.8182ZM24.7055 74.1541C26.371 74.1541 27.5493 73.3338 27.8873 72.0909L26.4804 71.8374C26.2119 72.5582 25.5656 72.9261 24.7204 72.9261C23.4477 72.9261 22.5926 72.1009 22.5528 70.6293H27.9818V70.1023C27.9818 67.343 26.3312 66.2642 24.6011 66.2642C22.4733 66.2642 21.0713 67.8849 21.0713 70.2315C21.0713 72.603 22.4534 74.1541 24.7055 74.1541ZM22.5578 69.5156C22.6175 68.4318 23.403 67.4922 24.6111 67.4922C25.7645 67.4922 26.5202 68.3473 26.5251 69.5156H22.5578ZM32.8328 77.0227C34.7767 77.0227 36.2781 76.1328 36.2781 74.169V66.3636H34.8215V67.6016H34.7121C34.4486 67.1293 33.9216 66.2642 32.4997 66.2642C30.6553 66.2642 29.298 67.7209 29.298 70.152C29.298 72.5881 30.6851 73.8857 32.4898 73.8857C33.8918 73.8857 34.4337 73.0952 34.7021 72.608H34.7966V74.1094C34.7966 75.3075 33.9763 75.8246 32.8477 75.8246C31.6098 75.8246 31.1276 75.2031 30.8641 74.7656L29.5864 75.2926C29.9891 76.2273 31.0083 77.0227 32.8328 77.0227ZM32.8179 72.6527C31.4905 72.6527 30.7994 71.6335 30.7994 70.1321C30.7994 68.6655 31.4756 67.527 32.8179 67.527C34.1155 67.527 34.8115 68.5859 34.8115 70.1321C34.8115 71.7081 34.1006 72.6527 32.8179 72.6527ZM38.2718 74H39.7583V69.3366C39.7583 68.3374 40.5289 67.6165 41.5828 67.6165C41.8911 67.6165 42.2391 67.6712 42.3584 67.706V66.2841C42.2093 66.2642 41.9159 66.2493 41.727 66.2493C40.8321 66.2493 40.0665 66.7564 39.7881 67.5767H39.7085V66.3636H38.2718V74ZM45.7987 74.169C47.0615 74.169 47.7725 73.5277 48.0558 72.956H48.1155V74H49.5672V68.929C49.5672 66.7067 47.8172 66.2642 46.6041 66.2642C45.222 66.2642 43.9493 66.821 43.4521 68.2131L44.8492 68.5312C45.0679 67.9893 45.6247 67.4673 46.624 67.4673C47.5835 67.4673 48.0757 67.9695 48.0757 68.8345V68.8693C48.0757 69.4112 47.5189 69.4013 46.1468 69.5604C44.7 69.7294 43.2185 70.1072 43.2185 71.8423C43.2185 73.3438 44.347 74.169 45.7987 74.169ZM46.1219 72.9759C45.2817 72.9759 44.6752 72.598 44.6752 71.8622C44.6752 71.0668 45.3811 70.7834 46.2412 70.669C46.7235 70.6044 47.8669 70.4751 48.0807 70.2614V71.2457C48.0807 72.1506 47.3598 72.9759 46.1219 72.9759ZM51.5471 74H53.0336V69.2919C53.0336 68.2628 53.7545 67.5469 54.5997 67.5469C55.425 67.5469 55.9967 68.0938 55.9967 68.924V74H57.4782V69.1328C57.4782 68.2131 58.04 67.5469 59.0095 67.5469C59.795 67.5469 60.4413 67.9844 60.4413 69.0185V74H61.9278V68.8793C61.9278 67.1342 60.9534 66.2642 59.5713 66.2642C58.4726 66.2642 57.6473 66.7912 57.2794 67.6065H57.1998C56.8667 66.7713 56.1657 66.2642 55.1466 66.2642C54.1373 66.2642 53.3866 66.7663 53.0684 67.6065H52.974V66.3636H51.5471V74ZM68.4195 69.0533H63.9053V70.3409H68.4195V69.0533ZM76.292 63.5199C75.9191 63.8182 75.3524 63.8182 74.5619 63.8132C74.3282 63.8132 74.0747 63.8132 73.7963 63.8182C71.3204 63.8679 70.0676 65.6278 70.0676 69.1179V69.8736C70.0676 72.6776 71.4596 74.1541 73.5924 74.1541C75.7252 74.1541 77.1073 72.6726 77.1073 70.2962C77.1073 67.9496 75.7501 66.652 73.9106 66.652C72.8019 66.652 71.8772 67.1243 71.3801 68.0689H71.2856C71.4546 66.1349 72.1805 65.1754 73.8311 65.1257C75.2977 65.081 76.2274 65.0859 76.9085 64.4595L76.292 63.5199ZM73.5974 72.9062C72.3346 72.9062 71.564 71.897 71.564 70.321C71.5839 68.7749 72.3445 67.8899 73.5825 67.8899C74.8403 67.8899 75.6059 68.7749 75.6059 70.321C75.6059 71.902 74.8403 72.9062 73.5974 72.9062ZM81.9845 74.1541C84.1372 74.1541 85.5441 72.5781 85.5441 70.2166C85.5441 67.8402 84.1372 66.2642 81.9845 66.2642C79.8318 66.2642 78.4248 67.8402 78.4248 70.2166C78.4248 72.5781 79.8318 74.1541 81.9845 74.1541ZM81.9894 72.9062C80.5825 72.9062 79.9262 71.6783 79.9262 70.2116C79.9262 68.75 80.5825 67.5071 81.9894 67.5071C83.3865 67.5071 84.0427 68.75 84.0427 70.2116C84.0427 71.6783 83.3865 72.9062 81.9894 72.9062ZM86.2836 67.6463H88.7844V74H90.2361V67.6463H92.7268V66.3636H86.2836V67.6463Z" fill="#1B1C1E"/><defs><linearGradient id="paint0_linear" x1="55.002" y1="8.002" x2="43.002" y2="36" gradientUnits="userSpaceOnUse"><stop stop-color="#37AEE2"/><stop offset="1" stop-color="#1E96C8"/></linearGradient></defs></svg>