<svg width="48" height="48" viewBox="0 0 48 48" fill="none" xmlns="http://www.w3.org/2000/svg"><path d="M24 48C37.2548 48 48 37.2548 48 24C48 10.7452 37.2548 0 24 0C10.7452 0 0 10.7452 0 24C0 37.2548 10.7452 48 24 48Z" fill="url(#paint0_linear)"/><path d="M24 48C37.2548 48 48 37.2548 48 24C48 10.7452 37.2548 0 24 0C10.7452 0 0 10.7452 0 24C0 37.2548 10.7452 48 24 48Z" fill="#069AED"/><path fill-rule="evenodd" clip-rule="evenodd" d="M26.0251 13.5802C26.0251 13.6277 26.3222 13.6603 26.7542 13.6603C27.1862 13.6603 27.4832 13.6929 27.4832 13.7405C27.4832 13.7845 27.6655 13.8206 27.8883 13.8206C28.111 13.8206 28.2933 13.8567 28.2933 13.9008C28.2933 13.9448 28.4756 13.9809 28.6983 13.9809C28.9211 13.9809 29.1034 14.017 29.1034 14.0611C29.1034 14.1052 29.2492 14.1412 29.4274 14.1412C29.6056 14.1412 29.7514 14.1773 29.7514 14.2214C29.7514 14.2655 29.8608 14.3015 29.9944 14.3015C30.1281 14.3015 30.2374 14.3376 30.2374 14.3817C30.2374 14.4258 30.3468 14.4618 30.4804 14.4618C30.6141 14.4618 30.7235 14.4979 30.7235 14.542C30.7235 14.5861 30.7964 14.6221 30.8855 14.6221C30.9746 14.6221 31.0475 14.6582 31.0475 14.7023C31.0475 14.7464 31.1568 14.7824 31.2905 14.7824C31.4242 14.7824 31.5335 14.8185 31.5335 14.8626C31.5335 14.9067 31.6064 14.9427 31.6955 14.9427C31.7846 14.9427 31.8575 14.9788 31.8575 15.0229C31.8575 15.067 31.9304 15.1031 32.0196 15.1031C32.1087 15.1031 32.1816 15.1391 32.1816 15.1832C32.1816 15.2273 32.2465 15.2634 32.3257 15.2634C32.405 15.2634 32.5224 15.3355 32.5866 15.4237C32.6508 15.5118 32.7682 15.584 32.8475 15.584C32.9267 15.584 32.9916 15.62 32.9916 15.6641C32.9916 15.7082 33.0565 15.7443 33.1357 15.7443C33.215 15.7443 33.3324 15.8164 33.3966 15.9046C33.4609 15.9927 33.5629 16.0649 33.6234 16.0649C33.6839 16.0649 33.8734 16.2092 34.0447 16.3855C34.2159 16.5618 34.3961 16.7061 34.4451 16.7061C34.5613 16.7061 35.4218 17.5576 35.4218 17.6725C35.4218 17.721 35.5676 17.8993 35.7458 18.0687C35.924 18.2381 36.0698 18.4257 36.0698 18.4856C36.0698 18.5455 36.1427 18.6464 36.2318 18.7099C36.3209 18.7735 36.3939 18.8896 36.3939 18.9681C36.3939 19.0465 36.4303 19.1107 36.4749 19.1107C36.5194 19.1107 36.5559 19.1749 36.5559 19.2533C36.5559 19.3317 36.6288 19.4479 36.7179 19.5115C36.807 19.575 36.8799 19.6912 36.8799 19.7696C36.8799 19.848 36.9163 19.9122 36.9609 19.9122C37.0054 19.9122 37.0419 20.0204 37.0419 20.1527C37.0419 20.2849 37.0784 20.3931 37.1229 20.3931C37.1752 20.3931 37.2039 19.5236 37.2039 17.9449V15.4965L37.4028 15.2998C37.6658 15.0395 38.0381 15.0395 38.3011 15.2998L38.5 15.4965V22.1128C38.5 26.4701 38.4724 28.729 38.419 28.729C38.3744 28.729 38.338 28.8372 38.338 28.9695C38.338 29.1017 38.3015 29.2099 38.257 29.2099C38.2124 29.2099 38.176 29.2821 38.176 29.3702C38.176 29.4584 38.1395 29.5305 38.095 29.5305C38.0504 29.5305 38.014 29.6027 38.014 29.6908C38.014 29.779 37.9775 29.8511 37.933 29.8511C37.8884 29.8511 37.852 29.9058 37.852 29.9727C37.852 30.1205 36.6819 31.2939 36.5346 31.2939C36.4768 31.2939 36.3771 31.366 36.3128 31.4542C36.2486 31.5424 36.1393 31.6145 36.0698 31.6145C36.0004 31.6145 35.8911 31.6866 35.8268 31.7748C35.7626 31.863 35.6452 31.9351 35.5659 31.9351C35.4867 31.9351 35.4218 31.9712 35.4218 32.0153C35.4218 32.0594 35.3489 32.0954 35.2598 32.0954C35.1707 32.0954 35.0978 32.1315 35.0978 32.1756C35.0978 32.2197 35.0249 32.2557 34.9358 32.2557C34.8466 32.2557 34.7737 32.2918 34.7737 32.3359C34.7737 32.38 34.7008 32.416 34.6117 32.416C34.5226 32.416 34.4497 32.4521 34.4497 32.4962C34.4497 32.5403 34.3768 32.5763 34.2877 32.5763C34.1986 32.5763 34.1257 32.6124 34.1257 32.6565C34.1257 32.7006 34.0163 32.7366 33.8827 32.7366C33.749 32.7366 33.6397 32.7727 33.6397 32.8168C33.6397 32.8609 33.5668 32.8969 33.4777 32.8969C33.3885 32.8969 33.3156 32.933 33.3156 32.9771C33.3156 33.0212 33.2063 33.0573 33.0726 33.0573C32.939 33.0573 32.8296 33.0933 32.8296 33.1374C32.8296 33.1815 32.7203 33.2176 32.5866 33.2176C32.4529 33.2176 32.3436 33.2536 32.3436 33.2977C32.3436 33.3418 32.1978 33.3779 32.0196 33.3779C31.8413 33.3779 31.6955 33.4139 31.6955 33.458C31.6955 33.5021 31.5862 33.5382 31.4525 33.5382C31.3189 33.5382 31.2095 33.5742 31.2095 33.6183C31.2095 33.6624 31.0272 33.6985 30.8045 33.6985C30.5817 33.6985 30.3994 33.7345 30.3994 33.7786C30.3994 33.8227 30.2172 33.8588 29.9944 33.8588C29.7716 33.8588 29.5894 33.8948 29.5894 33.9389C29.5894 33.983 29.4071 34.0191 29.1844 34.0191C28.9616 34.0191 28.7793 34.0552 28.7793 34.0992C28.7793 34.146 28.5093 34.1794 28.1313 34.1794C27.7532 34.1794 27.4832 34.2128 27.4832 34.2595C27.4832 34.3085 27.1052 34.3397 26.5112 34.3397C25.9172 34.3397 25.5391 34.3709 25.5391 34.4198C25.5391 34.4705 24.9721 34.5 24 34.5C23.0279 34.5 22.4609 34.4705 22.4609 34.4198C22.4609 34.3709 22.0828 34.3397 21.4888 34.3397C20.8948 34.3397 20.5168 34.3085 20.5168 34.2595C20.5168 34.2128 20.2468 34.1794 19.8687 34.1794C19.4907 34.1794 19.2207 34.146 19.2207 34.0992C19.2207 34.0547 19.0046 34.0191 18.7346 34.0191C18.4646 34.0191 18.2486 33.9835 18.2486 33.9389C18.2486 33.8948 18.0663 33.8588 17.8436 33.8588C17.6208 33.8588 17.4385 33.8227 17.4385 33.7786C17.4385 33.7345 17.2927 33.6985 17.1145 33.6985C16.9363 33.6985 16.7905 33.6624 16.7905 33.6183C16.7905 33.5742 16.6811 33.5382 16.5475 33.5382C16.4138 33.5382 16.3045 33.5021 16.3045 33.458C16.3045 33.4139 16.1587 33.3779 15.9804 33.3779C15.8022 33.3779 15.6564 33.3418 15.6564 33.2977C15.6564 33.2536 15.5471 33.2176 15.4134 33.2176C15.2797 33.2176 15.1704 33.1815 15.1704 33.1374C15.1704 33.0933 15.061 33.0573 14.9274 33.0573C14.7937 33.0573 14.6844 33.0212 14.6844 32.9771C14.6844 32.933 14.6115 32.8969 14.5223 32.8969C14.4332 32.8969 14.3603 32.8609 14.3603 32.8168C14.3603 32.7727 14.251 32.7366 14.1173 32.7366C13.9837 32.7366 13.8743 32.7006 13.8743 32.6565C13.8743 32.6124 13.8014 32.5763 13.7123 32.5763C13.6232 32.5763 13.5503 32.5403 13.5503 32.4962C13.5503 32.4521 13.4774 32.416 13.3883 32.416C13.2992 32.416 13.2263 32.38 13.2263 32.3359C13.2263 32.2918 13.1534 32.2557 13.0642 32.2557C12.9751 32.2557 12.9022 32.2197 12.9022 32.1756C12.9022 32.1315 12.8293 32.0954 12.7402 32.0954C12.6511 32.0954 12.5782 32.0594 12.5782 32.0153C12.5782 31.9712 12.5133 31.9351 12.4341 31.9351C12.3548 31.9351 12.2374 31.863 12.1732 31.7748C12.1089 31.6866 11.9996 31.6145 11.9302 31.6145C11.8607 31.6145 11.7514 31.5424 11.6872 31.4542C11.6229 31.366 11.5232 31.2939 11.4654 31.2939C11.3286 31.2939 10.148 30.1257 10.148 29.9904C10.148 29.9332 10.0751 29.8346 9.98603 29.771C9.89693 29.7074 9.82402 29.5913 9.82402 29.5128C9.82402 29.4344 9.78757 29.3702 9.74302 29.3702C9.69846 29.3702 9.66201 29.262 9.66201 29.1298C9.66201 28.9975 9.62556 28.8893 9.58101 28.8893C9.52762 28.8893 9.5 26.6038 9.5 22.193V15.4965L9.69887 15.2998C9.89466 15.106 10.3101 15.0268 10.3101 15.1832C10.3101 15.2273 10.3673 15.2634 10.4373 15.2634C10.7801 15.2634 10.7961 15.379 10.7961 17.8626C10.7961 19.3893 10.8249 20.2328 10.8771 20.2328C10.9216 20.2328 10.9581 20.1607 10.9581 20.0725C10.9581 19.9844 10.9946 19.9122 11.0391 19.9122C11.0837 19.9122 11.1201 19.8401 11.1201 19.7519C11.1201 19.6637 11.1566 19.5916 11.2011 19.5916C11.2457 19.5916 11.2821 19.5274 11.2821 19.449C11.2821 19.3705 11.355 19.2544 11.4441 19.1908C11.5332 19.1273 11.6061 19.0191 11.6061 18.9504C11.6061 18.8817 11.6791 18.7735 11.7682 18.7099C11.8573 18.6464 11.9302 18.5455 11.9302 18.4856C11.9302 18.4257 12.076 18.2381 12.2542 18.0687C12.4324 17.8993 12.5782 17.721 12.5782 17.6725C12.5782 17.5576 13.4387 16.7061 13.5549 16.7061C13.6039 16.7061 13.7841 16.5618 13.9553 16.3855C14.1266 16.2092 14.3161 16.0649 14.3766 16.0649C14.4371 16.0649 14.5391 15.9927 14.6034 15.9046C14.6676 15.8164 14.7769 15.7443 14.8464 15.7443C14.9158 15.7443 15.0251 15.6721 15.0894 15.584C15.1536 15.4958 15.271 15.4237 15.3503 15.4237C15.4295 15.4237 15.4944 15.3876 15.4944 15.3435C15.4944 15.2994 15.5673 15.2634 15.6564 15.2634C15.7455 15.2634 15.8184 15.2273 15.8184 15.1832C15.8184 15.1391 15.8913 15.1031 15.9804 15.1031C16.0696 15.1031 16.1425 15.067 16.1425 15.0229C16.1425 14.9788 16.2154 14.9427 16.3045 14.9427C16.3936 14.9427 16.4665 14.9067 16.4665 14.8626C16.4665 14.8185 16.5394 14.7824 16.6285 14.7824C16.7176 14.7824 16.7905 14.7464 16.7905 14.7023C16.7905 14.6582 16.8999 14.6221 17.0335 14.6221C17.1672 14.6221 17.2765 14.5861 17.2765 14.542C17.2765 14.4979 17.3859 14.4618 17.5196 14.4618C17.6532 14.4618 17.7626 14.4258 17.7626 14.3817C17.7626 14.3376 17.8719 14.3015 18.0056 14.3015C18.1392 14.3015 18.2486 14.2655 18.2486 14.2214C18.2486 14.1773 18.3944 14.1412 18.5726 14.1412C18.7508 14.1412 18.8966 14.1052 18.8966 14.0611C18.8966 14.017 19.0789 13.9809 19.3017 13.9809C19.5244 13.9809 19.7067 13.9448 19.7067 13.9008C19.7067 13.8567 19.889 13.8206 20.1117 13.8206C20.3345 13.8206 20.5168 13.7845 20.5168 13.7405C20.5168 13.6929 20.8138 13.6603 21.2458 13.6603C21.6778 13.6603 21.9749 13.6277 21.9749 13.5802C21.9749 13.5289 22.7039 13.5 24 13.5C25.2961 13.5 26.0251 13.5289 26.0251 13.5802ZM15.1704 22.1565C15.2595 22.1565 15.3324 22.1204 15.3324 22.0763C15.3324 22.0234 18.2486 21.9962 23.919 21.9962C29.5894 21.9962 32.5056 22.0234 32.5056 22.0763C32.5056 22.1204 32.6149 22.1565 32.7486 22.1565C32.8823 22.1565 32.9916 22.1926 32.9916 22.2366C32.9916 22.2807 33.101 22.3168 33.2346 22.3168C33.3683 22.3168 33.4777 22.3529 33.4777 22.3969C33.4777 22.441 33.5329 22.4771 33.6005 22.4771C33.7605 22.4771 34.9358 23.64 34.9358 23.7983C34.9358 23.8652 34.9722 23.9198 35.0168 23.9198C35.0613 23.9198 35.0978 23.992 35.0978 24.0802C35.0978 24.1683 35.1342 24.2405 35.1788 24.2405C35.2233 24.2405 35.2598 24.3487 35.2598 24.4809C35.2598 24.6132 35.2962 24.7214 35.3408 24.7214C35.3853 24.7214 35.4218 24.9017 35.4218 25.1221C35.4218 25.3426 35.4582 25.5229 35.5028 25.5229C35.5473 25.5229 35.5838 25.6311 35.5838 25.7634C35.5838 25.8956 35.5473 26.0038 35.5028 26.0038C35.4582 26.0038 35.4218 26.1842 35.4218 26.4046C35.4218 26.625 35.3853 26.8053 35.3408 26.8053C35.2962 26.8053 35.2598 26.9135 35.2598 27.0458C35.2598 27.1781 35.2233 27.2863 35.1788 27.2863C35.1342 27.2863 35.0978 27.3584 35.0978 27.4466C35.0978 27.5347 35.0613 27.6069 35.0168 27.6069C34.9722 27.6069 34.9358 27.6615 34.9358 27.7284C34.9358 27.7952 34.6629 28.1198 34.3295 28.4498C33.9961 28.7797 33.668 29.0496 33.6005 29.0496C33.5329 29.0496 33.4777 29.0857 33.4777 29.1298C33.4777 29.1739 33.4047 29.2099 33.3156 29.2099C33.2265 29.2099 33.1536 29.246 33.1536 29.2901C33.1536 29.3342 33.0443 29.3702 32.9106 29.3702C32.777 29.3702 32.6676 29.4063 32.6676 29.4504C32.6676 29.5033 29.7244 29.5305 24 29.5305C18.2756 29.5305 15.3324 29.5033 15.3324 29.4504C15.3324 29.4063 15.223 29.3702 15.0894 29.3702C14.9557 29.3702 14.8464 29.3342 14.8464 29.2901C14.8464 29.246 14.7735 29.2099 14.6844 29.2099C14.5953 29.2099 14.5223 29.1739 14.5223 29.1298C14.5223 29.0857 14.4641 29.0496 14.3928 29.0496C14.3216 29.0496 14.1611 28.9414 14.0363 28.8092C13.9115 28.6769 13.7666 28.5687 13.7145 28.5687C13.5858 28.5687 13.3883 28.3645 13.3883 28.2314C13.3883 28.1719 13.3154 28.0712 13.2263 28.0076C13.1372 27.9441 13.0642 27.8279 13.0642 27.7495C13.0642 27.6711 13.0278 27.6069 12.9832 27.6069C12.9387 27.6069 12.9022 27.5347 12.9022 27.4466C12.9022 27.3584 12.8658 27.2863 12.8212 27.2863C12.7767 27.2863 12.7402 27.2141 12.7402 27.126C12.7402 27.0378 12.7038 26.9656 12.6592 26.9656C12.6147 26.9656 12.5782 26.7853 12.5782 26.5649C12.5782 26.3445 12.5418 26.1641 12.4972 26.1641C12.4522 26.1641 12.4162 25.9504 12.4162 25.6832C12.4162 25.4161 12.4522 25.2023 12.4972 25.2023C12.5418 25.2023 12.5782 25.058 12.5782 24.8817C12.5782 24.7053 12.6147 24.5611 12.6592 24.5611C12.7038 24.5611 12.7402 24.4889 12.7402 24.4008C12.7402 24.3126 12.7767 24.2405 12.8212 24.2405C12.8658 24.2405 12.9022 24.1683 12.9022 24.0802C12.9022 23.992 12.9387 23.9198 12.9832 23.9198C13.0278 23.9198 13.0642 23.8622 13.0642 23.7917C13.0642 23.7212 13.1736 23.5624 13.3073 23.4389C13.4409 23.3154 13.5503 23.1566 13.5503 23.0862C13.5503 23.0156 13.6085 22.958 13.6798 22.958C13.751 22.958 13.9115 22.8498 14.0363 22.7176C14.1611 22.5853 14.3216 22.4771 14.3928 22.4771C14.4641 22.4771 14.5223 22.441 14.5223 22.3969C14.5223 22.3529 14.6317 22.3168 14.7654 22.3168C14.899 22.3168 15.0084 22.2807 15.0084 22.2366C15.0084 22.1926 15.0813 22.1565 15.1704 22.1565Z" fill="#fff"/><path d="M16.4665 24.1603C16.4665 24.2044 16.6043 24.2405 16.7726 24.2405C16.9858 24.2405 17.1142 24.2891 17.1955 24.4008C17.2598 24.4889 17.3615 24.5611 17.4217 24.5611C17.57 24.5611 17.7626 24.7615 17.7626 24.9161C17.7626 24.9853 17.799 25.042 17.8436 25.042C17.8881 25.042 17.9246 25.1502 17.9246 25.2824C17.9246 25.4147 17.961 25.5229 18.0056 25.5229C18.0501 25.5229 18.0866 25.6672 18.0866 25.8435C18.0866 26.0198 18.0501 26.1641 18.0056 26.1641C17.961 26.1641 17.9246 26.2363 17.9246 26.3244C17.9246 26.4126 17.8881 26.4847 17.8436 26.4847C17.799 26.4847 17.7626 26.5404 17.7626 26.6086C17.7626 26.769 17.4018 27.126 17.2397 27.126C17.1708 27.126 17.1145 27.162 17.1145 27.2061C17.1145 27.2502 17.0052 27.2863 16.8715 27.2863C16.7378 27.2863 16.6285 27.3223 16.6285 27.3664C16.6285 27.4105 16.5191 27.4466 16.3855 27.4466C16.2518 27.4466 16.1425 27.4105 16.1425 27.3664C16.1425 27.3223 16.0505 27.2863 15.9382 27.2863C15.7987 27.2863 15.5932 27.147 15.2901 26.8472C14.8857 26.4471 14.8464 26.3764 14.8464 26.0523C14.8464 25.8461 14.8038 25.6769 14.7451 25.6498C14.6641 25.6124 14.6641 25.5937 14.7451 25.5563C14.8008 25.5306 14.8464 25.4216 14.8464 25.3141C14.8464 25.041 15.6605 24.2405 15.9382 24.2405C16.0505 24.2405 16.1425 24.2044 16.1425 24.1603C16.1425 24.1162 16.2154 24.0802 16.3045 24.0802C16.3936 24.0802 16.4665 24.1162 16.4665 24.1603Z" fill="#fff"/><path d="M31.6955 24.1603C31.6955 24.2044 31.8049 24.2405 31.9385 24.2405C32.0722 24.2405 32.1816 24.2765 32.1816 24.3206C32.1816 24.3647 32.2375 24.4008 32.3057 24.4008C32.3741 24.4008 32.5564 24.5258 32.7108 24.6787C32.8653 24.8314 32.9916 25.0118 32.9916 25.0794C32.9916 25.147 33.0281 25.2023 33.0726 25.2023C33.1189 25.2023 33.1536 25.4427 33.1536 25.7634C33.1536 26.084 33.1189 26.3244 33.0726 26.3244C33.0281 26.3244 32.9916 26.3795 32.9916 26.4467C32.9916 26.6535 32.291 27.2863 32.0622 27.2863C31.9496 27.2863 31.8575 27.3223 31.8575 27.3664C31.8575 27.4105 31.7482 27.4466 31.6145 27.4466C31.4809 27.4466 31.3715 27.4105 31.3715 27.3664C31.3715 27.3223 31.2622 27.2863 31.1285 27.2863C30.9948 27.2863 30.8855 27.2502 30.8855 27.2061C30.8855 27.162 30.8292 27.126 30.7603 27.126C30.5982 27.126 30.2374 26.769 30.2374 26.6086C30.2374 26.5404 30.201 26.4847 30.1564 26.4847C30.1119 26.4847 30.0754 26.4126 30.0754 26.3244C30.0754 26.2363 30.039 26.1641 29.9944 26.1641C29.9499 26.1641 29.9134 25.9838 29.9134 25.7634C29.9134 25.5429 29.9499 25.3626 29.9944 25.3626C30.039 25.3626 30.0754 25.2905 30.0754 25.2023C30.0754 25.1141 30.1119 25.042 30.1564 25.042C30.201 25.042 30.2374 24.9863 30.2374 24.9181C30.2374 24.85 30.3269 24.7057 30.4363 24.5975C30.5457 24.4893 30.6915 24.4008 30.7603 24.4008C30.8292 24.4008 30.8855 24.3647 30.8855 24.3206C30.8855 24.2765 30.9948 24.2405 31.1285 24.2405C31.2622 24.2405 31.3715 24.2044 31.3715 24.1603C31.3715 24.1162 31.4444 24.0802 31.5335 24.0802C31.6226 24.0802 31.6955 24.1162 31.6955 24.1603Z" fill="#fff"/><defs><linearGradient id="paint0_linear" x1="32.002" y1="8.002" x2="20.002" y2="36" gradientUnits="userSpaceOnUse"><stop stop-color="#37AEE2"/><stop offset="1" stop-color="#1E96C8"/></linearGradient></defs></svg>