<svg width="94" height="78" viewBox="0 0 94 78" fill="none" xmlns="http://www.w3.org/2000/svg"><path d="M47 48C60.2548 48 71 37.2548 71 24C71 10.7452 60.2548 0 47 0C33.7452 0 23 10.7452 23 24C23 37.2548 33.7452 48 47 48Z" fill="url(#paint0_linear)"/><path d="M47 48C60.2548 48 71 37.2548 71 24C71 10.7452 60.2548 0 47 0C33.7452 0 23 10.7452 23 24C23 37.2548 33.7452 48 47 48Z" fill="#069AED"/><path d="M31.9376 25.1743C34.7432 23.629 37.875 22.3391 40.8012 21.0427C45.8354 18.9193 50.8896 16.8327 55.9948 14.8901C56.9881 14.5591 58.7728 14.2355 58.9478 15.7074C58.852 17.791 58.4578 19.8624 58.1874 21.9338C57.5012 26.489 56.7079 31.0286 55.9344 35.5688C55.6679 37.0812 53.7734 37.864 52.5612 36.8962C49.648 34.9285 46.7124 32.9798 43.8364 30.9664C42.8943 30.0092 43.7679 28.6344 44.6093 27.9508C47.0087 25.5862 49.5533 23.5772 51.8273 21.0904C52.4407 19.6092 50.6283 20.8575 50.0305 21.2401C46.7457 23.5037 43.5413 25.9055 40.0781 27.8949C38.3091 28.8686 36.2473 28.0365 34.4791 27.4931C32.8937 26.8367 30.5705 26.1754 31.9375 25.1745L31.9376 25.1743Z" fill="#fff"/><path d="M16.5061 65.1406H19.678V74H21.2093V65.1406H24.3861V63.8182H16.5061V65.1406ZM28.1919 74.1541C29.8573 74.1541 31.0356 73.3338 31.3737 72.0909L29.9667 71.8374C29.6982 72.5582 29.0519 72.9261 28.2068 72.9261C26.934 72.9261 26.0789 72.1009 26.0392 70.6293H31.4681V70.1023C31.4681 67.343 29.8176 66.2642 28.0874 66.2642C25.9596 66.2642 24.5576 67.8849 24.5576 70.2315C24.5576 72.603 25.9397 74.1541 28.1919 74.1541ZM26.0441 69.5156C26.1038 68.4318 26.8893 67.4922 28.0974 67.4922C29.2508 67.4922 30.0065 68.3473 30.0115 69.5156H26.0441ZM34.604 63.8182H33.1175V74H34.604V63.8182ZM39.895 74.1541C41.5605 74.1541 42.7387 73.3338 43.0768 72.0909L41.6698 71.8374C41.4014 72.5582 40.7551 72.9261 39.9099 72.9261C38.6372 72.9261 37.782 72.1009 37.7423 70.6293H43.1713V70.1023C43.1713 67.343 41.5207 66.2642 39.7906 66.2642C37.6627 66.2642 36.2607 67.8849 36.2607 70.2315C36.2607 72.603 37.6428 74.1541 39.895 74.1541ZM37.7472 69.5156C37.8069 68.4318 38.5924 67.4922 39.8005 67.4922C40.9539 67.4922 41.7096 68.3473 41.7146 69.5156H37.7472ZM48.0223 77.0227C49.9662 77.0227 51.4676 76.1328 51.4676 74.169V66.3636H50.0109V67.6016H49.9015C49.6381 67.1293 49.1111 66.2642 47.6892 66.2642C45.8447 66.2642 44.4875 67.7209 44.4875 70.152C44.4875 72.5881 45.8746 73.8857 47.6792 73.8857C49.0812 73.8857 49.6231 73.0952 49.8916 72.608H49.9861V74.1094C49.9861 75.3075 49.1657 75.8246 48.0372 75.8246C46.7993 75.8246 46.317 75.2031 46.0535 74.7656L44.7758 75.2926C45.1785 76.2273 46.1977 77.0227 48.0223 77.0227ZM48.0074 72.6527C46.68 72.6527 45.9889 71.6335 45.9889 70.1321C45.9889 68.6655 46.665 67.527 48.0074 67.527C49.305 67.527 50.001 68.5859 50.001 70.1321C50.001 71.7081 49.29 72.6527 48.0074 72.6527ZM53.4612 74H54.9477V69.3366C54.9477 68.3374 55.7183 67.6165 56.7723 67.6165C57.0805 67.6165 57.4285 67.6712 57.5479 67.706V66.2841C57.3987 66.2642 57.1054 66.2493 56.9165 66.2493C56.0216 66.2493 55.2559 66.7564 54.9775 67.5767H54.898V66.3636H53.4612V74ZM60.9882 74.169C62.251 74.169 62.9619 73.5277 63.2453 72.956H63.305V74H64.7567V68.929C64.7567 66.7067 63.0067 66.2642 61.7936 66.2642C60.4115 66.2642 59.1388 66.821 58.6416 68.2131L60.0386 68.5312C60.2574 67.9893 60.8142 67.4673 61.8135 67.4673C62.773 67.4673 63.2652 67.9695 63.2652 68.8345V68.8693C63.2652 69.4112 62.7084 69.4013 61.3362 69.5604C59.8895 69.7294 58.4079 70.1072 58.4079 71.8423C58.4079 73.3438 59.5365 74.169 60.9882 74.169ZM61.3113 72.9759C60.4711 72.9759 59.8646 72.598 59.8646 71.8622C59.8646 71.0668 60.5706 70.7834 61.4307 70.669C61.9129 70.6044 63.0564 70.4751 63.2702 70.2614V71.2457C63.2702 72.1506 62.5493 72.9759 61.3113 72.9759ZM66.7366 74H68.2231V69.2919C68.2231 68.2628 68.944 67.5469 69.7892 67.5469C70.6144 67.5469 71.1862 68.0938 71.1862 68.924V74H72.6677V69.1328C72.6677 68.2131 73.2295 67.5469 74.199 67.5469C74.9845 67.5469 75.6308 67.9844 75.6308 69.0185V74H77.1173V68.8793C77.1173 67.1342 76.1428 66.2642 74.7607 66.2642C73.662 66.2642 72.8367 66.7912 72.4688 67.6065H72.3893C72.0562 66.7713 71.3552 66.2642 70.336 66.2642C69.3268 66.2642 68.5761 66.7663 68.2579 67.6065H68.1634V66.3636H66.7366V74Z" fill="#1B1C1E"/><defs><linearGradient id="paint0_linear" x1="55.002" y1="8.002" x2="43.002" y2="36" gradientUnits="userSpaceOnUse"><stop stop-color="#37AEE2"/><stop offset="1" stop-color="#1E96C8"/></linearGradient></defs></svg>