<svg width="48" height="48" viewBox="0 0 48 48" fill="none" xmlns="http://www.w3.org/2000/svg"><path d="M24 48C37.2548 48 48 37.2548 48 24C48 10.7452 37.2548 0 24 0C10.7452 0 0 10.7452 0 24C0 37.2548 10.7452 48 24 48Z" fill="url(#paint0_linear)"/><path d="M24 48C37.2548 48 48 37.2548 48 24C48 10.7452 37.2548 0 24 0C10.7452 0 0 10.7452 0 24C0 37.2548 10.7452 48 24 48Z" fill="#069AED"/><path d="M8.93862 25.1743C11.7442 23.629 14.876 22.3391 17.8022 21.0427C22.8364 18.9193 27.8906 16.8327 32.9958 14.8901C33.9891 14.5591 35.7738 14.2355 35.9488 15.7074C35.8529 17.791 35.4588 19.8624 35.1884 21.9338C34.5021 26.489 33.7089 31.0286 32.9354 35.5688C32.6689 37.0812 30.7744 37.864 29.5622 36.8962C26.649 34.9285 23.7134 32.9798 20.8374 30.9664C19.8953 30.0092 20.7689 28.6344 21.6103 27.9508C24.0097 25.5862 26.5543 23.5772 28.8283 21.0904C29.4417 19.6092 27.6293 20.8575 27.0315 21.2401C23.7467 23.5037 20.5423 25.9055 17.0791 27.8949C15.3101 28.8686 13.2483 28.0365 11.4801 27.4931C9.89468 26.8367 7.57146 26.1754 8.93846 25.1745L8.93862 25.1743Z" fill="#fff"/><defs><linearGradient id="paint0_linear" x1="32.002" y1="8.002" x2="20.002" y2="36" gradientUnits="userSpaceOnUse"><stop stop-color="#37AEE2"/><stop offset="1" stop-color="#1E96C8"/></linearGradient></defs></svg>