<svg width="488" height="33" viewBox="0 0 488 33" fill="none" xmlns="http://www.w3.org/2000/svg"><path d="M3.75 30.1193C5.67614 30.1193 6.78409 28.4872 6.78409 25.6364C6.78409 22.8068 5.65909 21.1534 3.75 21.1534C1.84091 21.1534 0.715909 22.8068 0.715909 25.6364C0.715909 28.4872 1.82386 30.1193 3.75 30.1193ZM3.75 29.1818C2.48011 29.1818 1.73864 27.9077 1.73864 25.6364C1.73864 23.3693 2.48864 22.0739 3.75 22.0739C5.01136 22.0739 5.76136 23.3693 5.76136 25.6364C5.76136 27.9077 5.01989 29.1818 3.75 29.1818Z" fill="#1B1C1E"/><path d="M3.75 30.1193C5.67614 30.1193 6.78409 28.4872 6.78409 25.6364C6.78409 22.8068 5.65909 21.1534 3.75 21.1534C1.84091 21.1534 0.715909 22.8068 0.715909 25.6364C0.715909 28.4872 1.82386 30.1193 3.75 30.1193ZM3.75 29.1818C2.48011 29.1818 1.73864 27.9077 1.73864 25.6364C1.73864 23.3693 2.48864 22.0739 3.75 22.0739C5.01136 22.0739 5.76136 23.3693 5.76136 25.6364C5.76136 27.9077 5.01989 29.1818 3.75 29.1818Z" fill="#1B1C1E"/><path d="M100.972 21.2727H99.9148L97.733 22.7216V23.7955L99.8636 22.3807H99.9148V30H100.972V21.2727Z" fill="#1B1C1E"/><path d="M192.903 30H198.409V29.0625H194.352V28.9943L196.312 26.8977C197.812 25.2912 198.256 24.5412 198.256 23.5739C198.256 22.2273 197.165 21.1534 195.631 21.1534C194.101 21.1534 192.938 22.1932 192.938 23.7273H193.943C193.943 22.7344 194.587 22.0739 195.597 22.0739C196.543 22.0739 197.267 22.6534 197.267 23.5739C197.267 24.3793 196.794 24.9759 195.784 26.0795L192.903 29.233V30Z" fill="#1B1C1E"/><path d="M290.852 30.1193C292.544 30.1193 293.801 29.0582 293.801 27.6307C293.801 26.5227 293.145 25.7173 292.045 25.5341V25.4659C292.928 25.1974 293.477 24.473 293.477 23.4886C293.477 22.2528 292.501 21.1534 290.886 21.1534C289.378 21.1534 288.125 22.0824 288.074 23.4545H289.097C289.135 22.5852 289.962 22.0739 290.869 22.0739C291.832 22.0739 292.455 22.6577 292.455 23.5398C292.455 24.4602 291.734 25.0568 290.699 25.0568H290V25.9943H290.699C292.024 25.9943 292.761 26.6676 292.761 27.6307C292.761 28.5554 291.956 29.1818 290.835 29.1818C289.825 29.1818 289.024 28.6619 288.96 27.8182H287.886C287.95 29.1903 289.161 30.1193 290.852 30.1193Z" fill="#1B1C1E"/><path d="M384.699 28.2102H388.807V30H389.812V28.2102H391.006V27.2727H389.812V21.2727H388.534L384.699 27.3409V28.2102ZM388.807 27.2727H385.841V27.2045L388.739 22.6193H388.807V27.2727Z" fill="#1B1C1E"/><path d="M482.631 30.1193C484.293 30.1193 485.511 28.892 485.511 27.2216C485.511 25.5298 484.335 24.2898 482.733 24.2898C482.145 24.2898 481.574 24.4986 481.216 24.7841H481.165L481.472 22.2102H485.119V21.2727H480.585L480.057 25.5682L481.045 25.6875C481.408 25.4276 482.026 25.2401 482.562 25.2443C483.675 25.2528 484.489 26.0966 484.489 27.2386C484.489 28.3594 483.705 29.1818 482.631 29.1818C481.736 29.1818 481.024 28.6065 480.943 27.8182H479.92C479.984 29.1477 481.131 30.1193 482.631 30.1193Z" fill="#1B1C1E"/><circle cx="4" cy="4" r="4" fill="gold"/><circle cx="4" cy="4" r="4" fill="gold"/><circle cx="4" cy="4" r="4" fill="gold"/><circle cx="4" cy="4" r="4" fill="gold"/><circle cx="22" cy="4" r="2" fill="#1B1C1E" fill-opacity=".12"/><circle cx="22" cy="4" r="2" fill="#1B1C1E" fill-opacity=".12"/><circle cx="118" cy="4" r="2" fill="#1B1C1E" fill-opacity=".12"/><circle cx="118" cy="4" r="2" fill="#1B1C1E" fill-opacity=".12"/><circle cx="214" cy="4" r="2" fill="#1B1C1E" fill-opacity=".12"/><circle cx="214" cy="4" r="2" fill="#1B1C1E" fill-opacity=".12"/><circle cx="310" cy="4" r="2" fill="#1B1C1E" fill-opacity=".12"/><circle cx="310" cy="4" r="2" fill="#1B1C1E" fill-opacity=".12"/><circle cx="406" cy="4" r="2" fill="#1B1C1E" fill-opacity=".12"/><circle cx="406" cy="4" r="2" fill="#1B1C1E" fill-opacity=".12"/><circle cx="61" cy="4" r="2" fill="#1B1C1E" fill-opacity=".12"/><circle cx="61" cy="4" r="2" fill="#1B1C1E" fill-opacity=".12"/><circle cx="62" cy="4" r="2" fill="#1B1C1E" fill-opacity=".12"/><circle cx="62" cy="4" r="2" fill="#1B1C1E" fill-opacity=".12"/><circle cx="158" cy="4" r="2" fill="#1B1C1E" fill-opacity=".12"/><circle cx="158" cy="4" r="2" fill="#1B1C1E" fill-opacity=".12"/><circle cx="254" cy="4" r="2" fill="#1B1C1E" fill-opacity=".12"/><circle cx="254" cy="4" r="2" fill="#1B1C1E" fill-opacity=".12"/><circle cx="350" cy="4" r="2" fill="#1B1C1E" fill-opacity=".12"/><circle cx="350" cy="4" r="2" fill="#1B1C1E" fill-opacity=".12"/><circle cx="448" cy="4" r="2" fill="#1B1C1E" fill-opacity=".12"/><circle cx="448" cy="4" r="2" fill="#1B1C1E" fill-opacity=".12"/><circle cx="82" cy="4" r="2" fill="#1B1C1E" fill-opacity=".12"/><circle cx="82" cy="4" r="2" fill="#1B1C1E" fill-opacity=".12"/><circle cx="178" cy="4" r="2" fill="#1B1C1E" fill-opacity=".12"/><circle cx="178" cy="4" r="2" fill="#1B1C1E" fill-opacity=".12"/><circle cx="274" cy="4" r="2" fill="#1B1C1E" fill-opacity=".12"/><circle cx="274" cy="4" r="2" fill="#1B1C1E" fill-opacity=".12"/><circle cx="370" cy="4" r="2" fill="#1B1C1E" fill-opacity=".12"/><circle cx="370" cy="4" r="2" fill="#1B1C1E" fill-opacity=".12"/><circle cx="466" cy="4" r="2" fill="#1B1C1E" fill-opacity=".12"/><circle cx="466" cy="4" r="2" fill="#1B1C1E" fill-opacity=".12"/><circle cx="42" cy="4" r="2" fill="#1B1C1E" fill-opacity=".12"/><circle cx="42" cy="4" r="2" fill="#1B1C1E" fill-opacity=".12"/><circle cx="138" cy="4" r="2" fill="#1B1C1E" fill-opacity=".12"/><circle cx="138" cy="4" r="2" fill="#1B1C1E" fill-opacity=".12"/><circle cx="234" cy="4" r="2" fill="#1B1C1E" fill-opacity=".12"/><circle cx="234" cy="4" r="2" fill="#1B1C1E" fill-opacity=".12"/><circle cx="330" cy="4" r="2" fill="#1B1C1E" fill-opacity=".12"/><circle cx="330" cy="4" r="2" fill="#1B1C1E" fill-opacity=".12"/><circle cx="426" cy="4" r="2" fill="#1B1C1E" fill-opacity=".12"/><circle cx="426" cy="4" r="2" fill="#1B1C1E" fill-opacity=".12"/><circle cx="100" cy="4" r="4" fill="gold"/><circle cx="100" cy="4" r="4" fill="gold"/><circle cx="196" cy="4" r="4" fill="gold"/><circle cx="196" cy="4" r="4" fill="gold"/><circle cx="292" cy="4" r="4" fill="gold"/><circle cx="292" cy="4" r="4" fill="gold"/><circle cx="388" cy="4" r="4" fill="gold"/><circle cx="388" cy="4" r="4" fill="gold"/><circle cx="484" cy="4" r="4" fill="gold"/><circle cx="484" cy="4" r="4" fill="gold"/></svg>