<svg width="500" height="33" viewBox="0 0 500 33" fill="none" xmlns="http://www.w3.org/2000/svg"><path d="M3.75 30.1193C5.67614 30.1193 6.78409 28.4872 6.78409 25.6364C6.78409 22.8068 5.65909 21.1534 3.75 21.1534C1.84091 21.1534 0.715909 22.8068 0.715909 25.6364C0.715909 28.4872 1.82386 30.1193 3.75 30.1193ZM3.75 29.1818C2.48011 29.1818 1.73864 27.9077 1.73864 25.6364C1.73864 23.3693 2.48864 22.0739 3.75 22.0739C5.01136 22.0739 5.76136 23.3693 5.76136 25.6364C5.76136 27.9077 5.01989 29.1818 3.75 29.1818Z" fill="#1B1C1E"/><path d="M3.75 30.1193C5.67614 30.1193 6.78409 28.4872 6.78409 25.6364C6.78409 22.8068 5.65909 21.1534 3.75 21.1534C1.84091 21.1534 0.715909 22.8068 0.715909 25.6364C0.715909 28.4872 1.82386 30.1193 3.75 30.1193ZM3.75 29.1818C2.48011 29.1818 1.73864 27.9077 1.73864 25.6364C1.73864 23.3693 2.48864 22.0739 3.75 22.0739C5.01136 22.0739 5.76136 23.3693 5.76136 25.6364C5.76136 27.9077 5.01989 29.1818 3.75 29.1818Z" fill="#1B1C1E"/><path d="M89.9716 21.2727H88.9148L86.733 22.7216V23.7955L88.8636 22.3807H88.9148V30H89.9716V21.2727ZM95.3281 30.1193C97.2543 30.1193 98.3622 28.4872 98.3622 25.6364C98.3622 22.8068 97.2372 21.1534 95.3281 21.1534C93.419 21.1534 92.294 22.8068 92.294 25.6364C92.294 28.4872 93.402 30.1193 95.3281 30.1193ZM95.3281 29.1818C94.0582 29.1818 93.3168 27.9077 93.3168 25.6364C93.3168 23.3693 94.0668 22.0739 95.3281 22.0739C96.5895 22.0739 97.3395 23.3693 97.3395 25.6364C97.3395 27.9077 96.598 29.1818 95.3281 29.1818ZM107.805 28.3636C107.805 29.3182 108.402 30.1193 109.51 30.1193C110.601 30.1193 111.197 29.3182 111.197 28.3636V27.9034C111.197 26.9489 110.618 26.1477 109.51 26.1477C108.419 26.1477 107.805 26.9489 107.805 27.9034V28.3636ZM103.459 23.3693C103.459 24.3239 104.055 25.125 105.163 25.125C106.254 25.125 106.851 24.3239 106.851 23.3693V22.9091C106.851 21.9545 106.271 21.1534 105.163 21.1534C104.072 21.1534 103.459 21.9545 103.459 22.9091V23.3693ZM103.783 30H104.754L110.754 21.2727H109.783L103.783 30ZM108.675 27.9034C108.675 27.375 108.913 26.8807 109.51 26.8807C110.124 26.8807 110.328 27.375 110.328 27.9034V28.3636C110.328 28.892 110.107 29.3864 109.51 29.3864C108.896 29.3864 108.675 28.892 108.675 28.3636V27.9034ZM104.328 22.9091C104.328 22.3807 104.567 21.8864 105.163 21.8864C105.777 21.8864 105.982 22.3807 105.982 22.9091V23.3693C105.982 23.8977 105.76 24.392 105.163 24.392C104.55 24.392 104.328 23.8977 104.328 23.3693V22.9091Z" fill="#1B1C1E"/><path d="M182.903 30H188.409V29.0625H184.352V28.9943L186.312 26.8977C187.812 25.2912 188.256 24.5412 188.256 23.5739C188.256 22.2273 187.165 21.1534 185.631 21.1534C184.101 21.1534 182.938 22.1932 182.938 23.7273H183.943C183.943 22.7344 184.587 22.0739 185.597 22.0739C186.543 22.0739 187.267 22.6534 187.267 23.5739C187.267 24.3793 186.794 24.9759 185.784 26.0795L182.903 29.233V30ZM193.016 30.1193C194.942 30.1193 196.05 28.4872 196.05 25.6364C196.05 22.8068 194.925 21.1534 193.016 21.1534C191.107 21.1534 189.982 22.8068 189.982 25.6364C189.982 28.4872 191.089 30.1193 193.016 30.1193ZM193.016 29.1818C191.746 29.1818 191.004 27.9077 191.004 25.6364C191.004 23.3693 191.754 22.0739 193.016 22.0739C194.277 22.0739 195.027 23.3693 195.027 25.6364C195.027 27.9077 194.286 29.1818 193.016 29.1818ZM205.493 28.3636C205.493 29.3182 206.089 30.1193 207.197 30.1193C208.288 30.1193 208.885 29.3182 208.885 28.3636V27.9034C208.885 26.9489 208.305 26.1477 207.197 26.1477C206.107 26.1477 205.493 26.9489 205.493 27.9034V28.3636ZM201.146 23.3693C201.146 24.3239 201.743 25.125 202.851 25.125C203.942 25.125 204.538 24.3239 204.538 23.3693V22.9091C204.538 21.9545 203.959 21.1534 202.851 21.1534C201.76 21.1534 201.146 21.9545 201.146 22.9091V23.3693ZM201.47 30H202.442L208.442 21.2727H207.47L201.47 30ZM206.362 27.9034C206.362 27.375 206.601 26.8807 207.197 26.8807C207.811 26.8807 208.016 27.375 208.016 27.9034V28.3636C208.016 28.892 207.794 29.3864 207.197 29.3864C206.584 29.3864 206.362 28.892 206.362 28.3636V27.9034ZM202.016 22.9091C202.016 22.3807 202.254 21.8864 202.851 21.8864C203.464 21.8864 203.669 22.3807 203.669 22.9091V23.3693C203.669 23.8977 203.447 24.392 202.851 24.392C202.237 24.392 202.016 23.8977 202.016 23.3693V22.9091Z" fill="#1B1C1E"/><path d="M279.852 30.1193C281.544 30.1193 282.801 29.0582 282.801 27.6307C282.801 26.5227 282.145 25.7173 281.045 25.5341V25.4659C281.928 25.1974 282.477 24.473 282.477 23.4886C282.477 22.2528 281.501 21.1534 279.886 21.1534C278.378 21.1534 277.125 22.0824 277.074 23.4545H278.097C278.135 22.5852 278.962 22.0739 279.869 22.0739C280.832 22.0739 281.455 22.6577 281.455 23.5398C281.455 24.4602 280.734 25.0568 279.699 25.0568H279V25.9943H279.699C281.024 25.9943 281.761 26.6676 281.761 27.6307C281.761 28.5554 280.956 29.1818 279.835 29.1818C278.825 29.1818 278.024 28.6619 277.96 27.8182H276.886C276.95 29.1903 278.161 30.1193 279.852 30.1193ZM287.391 30.1193C289.317 30.1193 290.425 28.4872 290.425 25.6364C290.425 22.8068 289.3 21.1534 287.391 21.1534C285.482 21.1534 284.357 22.8068 284.357 25.6364C284.357 28.4872 285.464 30.1193 287.391 30.1193ZM287.391 29.1818C286.121 29.1818 285.379 27.9077 285.379 25.6364C285.379 23.3693 286.129 22.0739 287.391 22.0739C288.652 22.0739 289.402 23.3693 289.402 25.6364C289.402 27.9077 288.661 29.1818 287.391 29.1818ZM299.868 28.3636C299.868 29.3182 300.464 30.1193 301.572 30.1193C302.663 30.1193 303.26 29.3182 303.26 28.3636V27.9034C303.26 26.9489 302.68 26.1477 301.572 26.1477C300.482 26.1477 299.868 26.9489 299.868 27.9034V28.3636ZM295.521 23.3693C295.521 24.3239 296.118 25.125 297.226 25.125C298.317 25.125 298.913 24.3239 298.913 23.3693V22.9091C298.913 21.9545 298.334 21.1534 297.226 21.1534C296.135 21.1534 295.521 21.9545 295.521 22.9091V23.3693ZM295.845 30H296.817L302.817 21.2727H301.845L295.845 30ZM300.737 27.9034C300.737 27.375 300.976 26.8807 301.572 26.8807C302.186 26.8807 302.391 27.375 302.391 27.9034V28.3636C302.391 28.892 302.169 29.3864 301.572 29.3864C300.959 29.3864 300.737 28.892 300.737 28.3636V27.9034ZM296.391 22.9091C296.391 22.3807 296.629 21.8864 297.226 21.8864C297.839 21.8864 298.044 22.3807 298.044 22.9091V23.3693C298.044 23.8977 297.822 24.392 297.226 24.392C296.612 24.392 296.391 23.8977 296.391 23.3693V22.9091Z" fill="#1B1C1E"/><path d="M372.699 28.2102H376.807V30H377.812V28.2102H379.006V27.2727H377.812V21.2727H376.534L372.699 27.3409V28.2102ZM376.807 27.2727H373.841V27.2045L376.739 22.6193H376.807V27.2727ZM383.449 30.1193C385.375 30.1193 386.483 28.4872 386.483 25.6364C386.483 22.8068 385.358 21.1534 383.449 21.1534C381.54 21.1534 380.415 22.8068 380.415 25.6364C380.415 28.4872 381.523 30.1193 383.449 30.1193ZM383.449 29.1818C382.179 29.1818 381.438 27.9077 381.438 25.6364C381.438 23.3693 382.188 22.0739 383.449 22.0739C384.711 22.0739 385.461 23.3693 385.461 25.6364C385.461 27.9077 384.719 29.1818 383.449 29.1818ZM395.926 28.3636C395.926 29.3182 396.523 30.1193 397.631 30.1193C398.722 30.1193 399.319 29.3182 399.319 28.3636V27.9034C399.319 26.9489 398.739 26.1477 397.631 26.1477C396.54 26.1477 395.926 26.9489 395.926 27.9034V28.3636ZM391.58 23.3693C391.58 24.3239 392.176 25.125 393.284 25.125C394.375 25.125 394.972 24.3239 394.972 23.3693V22.9091C394.972 21.9545 394.392 21.1534 393.284 21.1534C392.194 21.1534 391.58 21.9545 391.58 22.9091V23.3693ZM391.904 30H392.875L398.875 21.2727H397.904L391.904 30ZM396.796 27.9034C396.796 27.375 397.034 26.8807 397.631 26.8807C398.245 26.8807 398.449 27.375 398.449 27.9034V28.3636C398.449 28.892 398.228 29.3864 397.631 29.3864C397.017 29.3864 396.796 28.892 396.796 28.3636V27.9034ZM392.449 22.9091C392.449 22.3807 392.688 21.8864 393.284 21.8864C393.898 21.8864 394.103 22.3807 394.103 22.9091V23.3693C394.103 23.8977 393.881 24.392 393.284 24.392C392.671 24.392 392.449 23.8977 392.449 23.3693V22.9091Z" fill="#1B1C1E"/><path d="M469.972 21.2727H468.915L466.733 22.7216V23.7955L468.864 22.3807H468.915V30H469.972V21.2727ZM475.328 30.1193C477.254 30.1193 478.362 28.4872 478.362 25.6364C478.362 22.8068 477.237 21.1534 475.328 21.1534C473.419 21.1534 472.294 22.8068 472.294 25.6364C472.294 28.4872 473.402 30.1193 475.328 30.1193ZM475.328 29.1818C474.058 29.1818 473.317 27.9077 473.317 25.6364C473.317 23.3693 474.067 22.0739 475.328 22.0739C476.589 22.0739 477.339 23.3693 477.339 25.6364C477.339 27.9077 476.598 29.1818 475.328 29.1818ZM482.828 30.1193C484.754 30.1193 485.862 28.4872 485.862 25.6364C485.862 22.8068 484.737 21.1534 482.828 21.1534C480.919 21.1534 479.794 22.8068 479.794 25.6364C479.794 28.4872 480.902 30.1193 482.828 30.1193ZM482.828 29.1818C481.558 29.1818 480.817 27.9077 480.817 25.6364C480.817 23.3693 481.567 22.0739 482.828 22.0739C484.089 22.0739 484.839 23.3693 484.839 25.6364C484.839 27.9077 484.098 29.1818 482.828 29.1818ZM495.305 28.3636C495.305 29.3182 495.902 30.1193 497.01 30.1193C498.101 30.1193 498.697 29.3182 498.697 28.3636V27.9034C498.697 26.9489 498.118 26.1477 497.01 26.1477C495.919 26.1477 495.305 26.9489 495.305 27.9034V28.3636ZM490.959 23.3693C490.959 24.3239 491.555 25.125 492.663 25.125C493.754 25.125 494.351 24.3239 494.351 23.3693V22.9091C494.351 21.9545 493.771 21.1534 492.663 21.1534C491.572 21.1534 490.959 21.9545 490.959 22.9091V23.3693ZM491.283 30H492.254L498.254 21.2727H497.283L491.283 30ZM496.175 27.9034C496.175 27.375 496.413 26.8807 497.01 26.8807C497.624 26.8807 497.828 27.375 497.828 27.9034V28.3636C497.828 28.892 497.607 29.3864 497.01 29.3864C496.396 29.3864 496.175 28.892 496.175 28.3636V27.9034ZM491.828 22.9091C491.828 22.3807 492.067 21.8864 492.663 21.8864C493.277 21.8864 493.482 22.3807 493.482 22.9091V23.3693C493.482 23.8977 493.26 24.392 492.663 24.392C492.05 24.392 491.828 23.8977 491.828 23.3693V22.9091Z" fill="#1B1C1E"/><circle cx="4" cy="4" r="4" fill="gold"/><circle cx="4" cy="4" r="4" fill="gold"/><circle cx="4" cy="4" r="4" fill="gold"/><circle cx="4" cy="4" r="4" fill="gold"/><circle cx="22" cy="4" r="2" fill="#1B1C1E" fill-opacity=".12"/><circle cx="22" cy="4" r="2" fill="#1B1C1E" fill-opacity=".12"/><circle cx="118" cy="4" r="2" fill="#1B1C1E" fill-opacity=".12"/><circle cx="118" cy="4" r="2" fill="#1B1C1E" fill-opacity=".12"/><circle cx="214" cy="4" r="2" fill="#1B1C1E" fill-opacity=".12"/><circle cx="214" cy="4" r="2" fill="#1B1C1E" fill-opacity=".12"/><circle cx="310" cy="4" r="2" fill="#1B1C1E" fill-opacity=".12"/><circle cx="310" cy="4" r="2" fill="#1B1C1E" fill-opacity=".12"/><circle cx="406" cy="4" r="2" fill="#1B1C1E" fill-opacity=".12"/><circle cx="406" cy="4" r="2" fill="#1B1C1E" fill-opacity=".12"/><circle cx="61" cy="4" r="2" fill="#1B1C1E" fill-opacity=".12"/><circle cx="61" cy="4" r="2" fill="#1B1C1E" fill-opacity=".12"/><circle cx="62" cy="4" r="2" fill="#1B1C1E" fill-opacity=".12"/><circle cx="62" cy="4" r="2" fill="#1B1C1E" fill-opacity=".12"/><circle cx="158" cy="4" r="2" fill="#1B1C1E" fill-opacity=".12"/><circle cx="158" cy="4" r="2" fill="#1B1C1E" fill-opacity=".12"/><circle cx="254" cy="4" r="2" fill="#1B1C1E" fill-opacity=".12"/><circle cx="254" cy="4" r="2" fill="#1B1C1E" fill-opacity=".12"/><circle cx="350" cy="4" r="2" fill="#1B1C1E" fill-opacity=".12"/><circle cx="350" cy="4" r="2" fill="#1B1C1E" fill-opacity=".12"/><circle cx="448" cy="4" r="2" fill="#1B1C1E" fill-opacity=".12"/><circle cx="448" cy="4" r="2" fill="#1B1C1E" fill-opacity=".12"/><circle cx="82" cy="4" r="2" fill="#1B1C1E" fill-opacity=".12"/><circle cx="82" cy="4" r="2" fill="#1B1C1E" fill-opacity=".12"/><circle cx="178" cy="4" r="2" fill="#1B1C1E" fill-opacity=".12"/><circle cx="178" cy="4" r="2" fill="#1B1C1E" fill-opacity=".12"/><circle cx="274" cy="4" r="2" fill="#1B1C1E" fill-opacity=".12"/><circle cx="274" cy="4" r="2" fill="#1B1C1E" fill-opacity=".12"/><circle cx="370" cy="4" r="2" fill="#1B1C1E" fill-opacity=".12"/><circle cx="370" cy="4" r="2" fill="#1B1C1E" fill-opacity=".12"/><circle cx="466" cy="4" r="2" fill="#1B1C1E" fill-opacity=".12"/><circle cx="466" cy="4" r="2" fill="#1B1C1E" fill-opacity=".12"/><circle cx="42" cy="4" r="2" fill="#1B1C1E" fill-opacity=".12"/><circle cx="42" cy="4" r="2" fill="#1B1C1E" fill-opacity=".12"/><circle cx="138" cy="4" r="2" fill="#1B1C1E" fill-opacity=".12"/><circle cx="138" cy="4" r="2" fill="#1B1C1E" fill-opacity=".12"/><circle cx="234" cy="4" r="2" fill="#1B1C1E" fill-opacity=".12"/><circle cx="234" cy="4" r="2" fill="#1B1C1E" fill-opacity=".12"/><circle cx="330" cy="4" r="2" fill="#1B1C1E" fill-opacity=".12"/><circle cx="330" cy="4" r="2" fill="#1B1C1E" fill-opacity=".12"/><circle cx="426" cy="4" r="2" fill="#1B1C1E" fill-opacity=".12"/><circle cx="426" cy="4" r="2" fill="#1B1C1E" fill-opacity=".12"/><circle cx="100" cy="4" r="4" fill="gold"/><circle cx="100" cy="4" r="4" fill="gold"/><circle cx="196" cy="4" r="4" fill="gold"/><circle cx="196" cy="4" r="4" fill="gold"/><circle cx="292" cy="4" r="4" fill="gold"/><circle cx="292" cy="4" r="4" fill="gold"/><circle cx="388" cy="4" r="4" fill="gold"/><circle cx="388" cy="4" r="4" fill="gold"/><circle cx="484" cy="4" r="4" fill="gold"/><circle cx="484" cy="4" r="4" fill="gold"/></svg>