<svg width="504" height="33" viewBox="0 0 504 33" fill="none" xmlns="http://www.w3.org/2000/svg"><path d="M3.75 30.1193C5.67614 30.1193 6.78409 28.4872 6.78409 25.6364C6.78409 22.8068 5.65909 21.1534 3.75 21.1534C1.84091 21.1534 0.715909 22.8068 0.715909 25.6364C0.715909 28.4872 1.82386 30.1193 3.75 30.1193ZM3.75 29.1818C2.48011 29.1818 1.73864 27.9077 1.73864 25.6364C1.73864 23.3693 2.48864 22.0739 3.75 22.0739C5.01136 22.0739 5.76136 23.3693 5.76136 25.6364C5.76136 27.9077 5.01989 29.1818 3.75 29.1818Z" fill="#1B1C1E"/><path d="M86.9716 21.2727H85.9148L83.733 22.7216V23.7955L85.8636 22.3807H85.9148V30H86.9716V21.2727ZM92.3281 30.1193C94.2543 30.1193 95.3622 28.4872 95.3622 25.6364C95.3622 22.8068 94.2372 21.1534 92.3281 21.1534C90.419 21.1534 89.294 22.8068 89.294 25.6364C89.294 28.4872 90.402 30.1193 92.3281 30.1193ZM92.3281 29.1818C91.0582 29.1818 90.3168 27.9077 90.3168 25.6364C90.3168 23.3693 91.0668 22.0739 92.3281 22.0739C93.5895 22.0739 94.3395 23.3693 94.3395 25.6364C94.3395 27.9077 93.598 29.1818 92.3281 29.1818ZM103.203 30.1193C105.129 30.1193 106.237 28.4872 106.237 25.6364C106.237 22.8068 105.112 21.1534 103.203 21.1534C101.294 21.1534 100.169 22.8068 100.169 25.6364C100.169 28.4872 101.277 30.1193 103.203 30.1193ZM103.203 29.1818C101.933 29.1818 101.192 27.9077 101.192 25.6364C101.192 23.3693 101.942 22.0739 103.203 22.0739C104.464 22.0739 105.214 23.3693 105.214 25.6364C105.214 27.9077 104.473 29.1818 103.203 29.1818ZM110.703 30.1193C112.629 30.1193 113.737 28.4872 113.737 25.6364C113.737 22.8068 112.612 21.1534 110.703 21.1534C108.794 21.1534 107.669 22.8068 107.669 25.6364C107.669 28.4872 108.777 30.1193 110.703 30.1193ZM110.703 29.1818C109.433 29.1818 108.692 27.9077 108.692 25.6364C108.692 23.3693 109.442 22.0739 110.703 22.0739C111.964 22.0739 112.714 23.3693 112.714 25.6364C112.714 27.9077 111.973 29.1818 110.703 29.1818ZM118.203 30.1193C120.129 30.1193 121.237 28.4872 121.237 25.6364C121.237 22.8068 120.112 21.1534 118.203 21.1534C116.294 21.1534 115.169 22.8068 115.169 25.6364C115.169 28.4872 116.277 30.1193 118.203 30.1193ZM118.203 29.1818C116.933 29.1818 116.192 27.9077 116.192 25.6364C116.192 23.3693 116.942 22.0739 118.203 22.0739C119.464 22.0739 120.214 23.3693 120.214 25.6364C120.214 27.9077 119.473 29.1818 118.203 29.1818Z" fill="#1B1C1E"/><path d="M178.903 30H184.409V29.0625H180.352V28.9943L182.312 26.8977C183.812 25.2912 184.256 24.5412 184.256 23.5739C184.256 22.2273 183.165 21.1534 181.631 21.1534C180.101 21.1534 178.938 22.1932 178.938 23.7273H179.943C179.943 22.7344 180.587 22.0739 181.597 22.0739C182.543 22.0739 183.267 22.6534 183.267 23.5739C183.267 24.3793 182.794 24.9759 181.784 26.0795L178.903 29.233V30ZM189.016 30.1193C190.942 30.1193 192.05 28.4872 192.05 25.6364C192.05 22.8068 190.925 21.1534 189.016 21.1534C187.107 21.1534 185.982 22.8068 185.982 25.6364C185.982 28.4872 187.089 30.1193 189.016 30.1193ZM189.016 29.1818C187.746 29.1818 187.004 27.9077 187.004 25.6364C187.004 23.3693 187.754 22.0739 189.016 22.0739C190.277 22.0739 191.027 23.3693 191.027 25.6364C191.027 27.9077 190.286 29.1818 189.016 29.1818ZM199.891 30.1193C201.817 30.1193 202.925 28.4872 202.925 25.6364C202.925 22.8068 201.8 21.1534 199.891 21.1534C197.982 21.1534 196.857 22.8068 196.857 25.6364C196.857 28.4872 197.964 30.1193 199.891 30.1193ZM199.891 29.1818C198.621 29.1818 197.879 27.9077 197.879 25.6364C197.879 23.3693 198.629 22.0739 199.891 22.0739C201.152 22.0739 201.902 23.3693 201.902 25.6364C201.902 27.9077 201.161 29.1818 199.891 29.1818ZM207.391 30.1193C209.317 30.1193 210.425 28.4872 210.425 25.6364C210.425 22.8068 209.3 21.1534 207.391 21.1534C205.482 21.1534 204.357 22.8068 204.357 25.6364C204.357 28.4872 205.464 30.1193 207.391 30.1193ZM207.391 29.1818C206.121 29.1818 205.379 27.9077 205.379 25.6364C205.379 23.3693 206.129 22.0739 207.391 22.0739C208.652 22.0739 209.402 23.3693 209.402 25.6364C209.402 27.9077 208.661 29.1818 207.391 29.1818ZM214.891 30.1193C216.817 30.1193 217.925 28.4872 217.925 25.6364C217.925 22.8068 216.8 21.1534 214.891 21.1534C212.982 21.1534 211.857 22.8068 211.857 25.6364C211.857 28.4872 212.964 30.1193 214.891 30.1193ZM214.891 29.1818C213.621 29.1818 212.879 27.9077 212.879 25.6364C212.879 23.3693 213.629 22.0739 214.891 22.0739C216.152 22.0739 216.902 23.3693 216.902 25.6364C216.902 27.9077 216.161 29.1818 214.891 29.1818Z" fill="#1B1C1E"/><path d="M275.852 30.1193C277.544 30.1193 278.801 29.0582 278.801 27.6307C278.801 26.5227 278.145 25.7173 277.045 25.5341V25.4659C277.928 25.1974 278.477 24.473 278.477 23.4886C278.477 22.2528 277.501 21.1534 275.886 21.1534C274.378 21.1534 273.125 22.0824 273.074 23.4545H274.097C274.135 22.5852 274.962 22.0739 275.869 22.0739C276.832 22.0739 277.455 22.6577 277.455 23.5398C277.455 24.4602 276.734 25.0568 275.699 25.0568H275V25.9943H275.699C277.024 25.9943 277.761 26.6676 277.761 27.6307C277.761 28.5554 276.956 29.1818 275.835 29.1818C274.825 29.1818 274.024 28.6619 273.96 27.8182H272.886C272.95 29.1903 274.161 30.1193 275.852 30.1193ZM283.391 30.1193C285.317 30.1193 286.425 28.4872 286.425 25.6364C286.425 22.8068 285.3 21.1534 283.391 21.1534C281.482 21.1534 280.357 22.8068 280.357 25.6364C280.357 28.4872 281.464 30.1193 283.391 30.1193ZM283.391 29.1818C282.121 29.1818 281.379 27.9077 281.379 25.6364C281.379 23.3693 282.129 22.0739 283.391 22.0739C284.652 22.0739 285.402 23.3693 285.402 25.6364C285.402 27.9077 284.661 29.1818 283.391 29.1818ZM294.266 30.1193C296.192 30.1193 297.3 28.4872 297.3 25.6364C297.3 22.8068 296.175 21.1534 294.266 21.1534C292.357 21.1534 291.232 22.8068 291.232 25.6364C291.232 28.4872 292.339 30.1193 294.266 30.1193ZM294.266 29.1818C292.996 29.1818 292.254 27.9077 292.254 25.6364C292.254 23.3693 293.004 22.0739 294.266 22.0739C295.527 22.0739 296.277 23.3693 296.277 25.6364C296.277 27.9077 295.536 29.1818 294.266 29.1818ZM301.766 30.1193C303.692 30.1193 304.8 28.4872 304.8 25.6364C304.8 22.8068 303.675 21.1534 301.766 21.1534C299.857 21.1534 298.732 22.8068 298.732 25.6364C298.732 28.4872 299.839 30.1193 301.766 30.1193ZM301.766 29.1818C300.496 29.1818 299.754 27.9077 299.754 25.6364C299.754 23.3693 300.504 22.0739 301.766 22.0739C303.027 22.0739 303.777 23.3693 303.777 25.6364C303.777 27.9077 303.036 29.1818 301.766 29.1818ZM309.266 30.1193C311.192 30.1193 312.3 28.4872 312.3 25.6364C312.3 22.8068 311.175 21.1534 309.266 21.1534C307.357 21.1534 306.232 22.8068 306.232 25.6364C306.232 28.4872 307.339 30.1193 309.266 30.1193ZM309.266 29.1818C307.996 29.1818 307.254 27.9077 307.254 25.6364C307.254 23.3693 308.004 22.0739 309.266 22.0739C310.527 22.0739 311.277 23.3693 311.277 25.6364C311.277 27.9077 310.536 29.1818 309.266 29.1818Z" fill="#1B1C1E"/><path d="M367.699 28.2102H371.807V30H372.812V28.2102H374.006V27.2727H372.812V21.2727H371.534L367.699 27.3409V28.2102ZM371.807 27.2727H368.841V27.2045L371.739 22.6193H371.807V27.2727ZM378.449 30.1193C380.375 30.1193 381.483 28.4872 381.483 25.6364C381.483 22.8068 380.358 21.1534 378.449 21.1534C376.54 21.1534 375.415 22.8068 375.415 25.6364C375.415 28.4872 376.523 30.1193 378.449 30.1193ZM378.449 29.1818C377.179 29.1818 376.438 27.9077 376.438 25.6364C376.438 23.3693 377.188 22.0739 378.449 22.0739C379.711 22.0739 380.461 23.3693 380.461 25.6364C380.461 27.9077 379.719 29.1818 378.449 29.1818ZM389.324 30.1193C391.25 30.1193 392.358 28.4872 392.358 25.6364C392.358 22.8068 391.233 21.1534 389.324 21.1534C387.415 21.1534 386.29 22.8068 386.29 25.6364C386.29 28.4872 387.398 30.1193 389.324 30.1193ZM389.324 29.1818C388.054 29.1818 387.313 27.9077 387.313 25.6364C387.313 23.3693 388.063 22.0739 389.324 22.0739C390.586 22.0739 391.336 23.3693 391.336 25.6364C391.336 27.9077 390.594 29.1818 389.324 29.1818ZM396.824 30.1193C398.75 30.1193 399.858 28.4872 399.858 25.6364C399.858 22.8068 398.733 21.1534 396.824 21.1534C394.915 21.1534 393.79 22.8068 393.79 25.6364C393.79 28.4872 394.898 30.1193 396.824 30.1193ZM396.824 29.1818C395.554 29.1818 394.813 27.9077 394.813 25.6364C394.813 23.3693 395.563 22.0739 396.824 22.0739C398.086 22.0739 398.836 23.3693 398.836 25.6364C398.836 27.9077 398.094 29.1818 396.824 29.1818ZM404.324 30.1193C406.25 30.1193 407.358 28.4872 407.358 25.6364C407.358 22.8068 406.233 21.1534 404.324 21.1534C402.415 21.1534 401.29 22.8068 401.29 25.6364C401.29 28.4872 402.398 30.1193 404.324 30.1193ZM404.324 29.1818C403.054 29.1818 402.313 27.9077 402.313 25.6364C402.313 23.3693 403.063 22.0739 404.324 22.0739C405.586 22.0739 406.336 23.3693 406.336 25.6364C406.336 27.9077 405.594 29.1818 404.324 29.1818Z" fill="#1B1C1E"/><path d="M460.972 21.2727H459.915L457.733 22.7216V23.7955L459.864 22.3807H459.915V30H460.972V21.2727ZM466.328 30.1193C468.254 30.1193 469.362 28.4872 469.362 25.6364C469.362 22.8068 468.237 21.1534 466.328 21.1534C464.419 21.1534 463.294 22.8068 463.294 25.6364C463.294 28.4872 464.402 30.1193 466.328 30.1193ZM466.328 29.1818C465.058 29.1818 464.317 27.9077 464.317 25.6364C464.317 23.3693 465.067 22.0739 466.328 22.0739C467.589 22.0739 468.339 23.3693 468.339 25.6364C468.339 27.9077 467.598 29.1818 466.328 29.1818ZM473.828 30.1193C475.754 30.1193 476.862 28.4872 476.862 25.6364C476.862 22.8068 475.737 21.1534 473.828 21.1534C471.919 21.1534 470.794 22.8068 470.794 25.6364C470.794 28.4872 471.902 30.1193 473.828 30.1193ZM473.828 29.1818C472.558 29.1818 471.817 27.9077 471.817 25.6364C471.817 23.3693 472.567 22.0739 473.828 22.0739C475.089 22.0739 475.839 23.3693 475.839 25.6364C475.839 27.9077 475.098 29.1818 473.828 29.1818ZM484.703 30.1193C486.629 30.1193 487.737 28.4872 487.737 25.6364C487.737 22.8068 486.612 21.1534 484.703 21.1534C482.794 21.1534 481.669 22.8068 481.669 25.6364C481.669 28.4872 482.777 30.1193 484.703 30.1193ZM484.703 29.1818C483.433 29.1818 482.692 27.9077 482.692 25.6364C482.692 23.3693 483.442 22.0739 484.703 22.0739C485.964 22.0739 486.714 23.3693 486.714 25.6364C486.714 27.9077 485.973 29.1818 484.703 29.1818ZM492.203 30.1193C494.129 30.1193 495.237 28.4872 495.237 25.6364C495.237 22.8068 494.112 21.1534 492.203 21.1534C490.294 21.1534 489.169 22.8068 489.169 25.6364C489.169 28.4872 490.277 30.1193 492.203 30.1193ZM492.203 29.1818C490.933 29.1818 490.192 27.9077 490.192 25.6364C490.192 23.3693 490.942 22.0739 492.203 22.0739C493.464 22.0739 494.214 23.3693 494.214 25.6364C494.214 27.9077 493.473 29.1818 492.203 29.1818ZM499.703 30.1193C501.629 30.1193 502.737 28.4872 502.737 25.6364C502.737 22.8068 501.612 21.1534 499.703 21.1534C497.794 21.1534 496.669 22.8068 496.669 25.6364C496.669 28.4872 497.777 30.1193 499.703 30.1193ZM499.703 29.1818C498.433 29.1818 497.692 27.9077 497.692 25.6364C497.692 23.3693 498.442 22.0739 499.703 22.0739C500.964 22.0739 501.714 23.3693 501.714 25.6364C501.714 27.9077 500.973 29.1818 499.703 29.1818Z" fill="#1B1C1E"/><path d="M460.972 21.2727H459.915L457.733 22.7216V23.7955L459.864 22.3807H459.915V30H460.972V21.2727ZM466.328 30.1193C468.254 30.1193 469.362 28.4872 469.362 25.6364C469.362 22.8068 468.237 21.1534 466.328 21.1534C464.419 21.1534 463.294 22.8068 463.294 25.6364C463.294 28.4872 464.402 30.1193 466.328 30.1193ZM466.328 29.1818C465.058 29.1818 464.317 27.9077 464.317 25.6364C464.317 23.3693 465.067 22.0739 466.328 22.0739C467.589 22.0739 468.339 23.3693 468.339 25.6364C468.339 27.9077 467.598 29.1818 466.328 29.1818ZM473.828 30.1193C475.754 30.1193 476.862 28.4872 476.862 25.6364C476.862 22.8068 475.737 21.1534 473.828 21.1534C471.919 21.1534 470.794 22.8068 470.794 25.6364C470.794 28.4872 471.902 30.1193 473.828 30.1193ZM473.828 29.1818C472.558 29.1818 471.817 27.9077 471.817 25.6364C471.817 23.3693 472.567 22.0739 473.828 22.0739C475.089 22.0739 475.839 23.3693 475.839 25.6364C475.839 27.9077 475.098 29.1818 473.828 29.1818ZM484.703 30.1193C486.629 30.1193 487.737 28.4872 487.737 25.6364C487.737 22.8068 486.612 21.1534 484.703 21.1534C482.794 21.1534 481.669 22.8068 481.669 25.6364C481.669 28.4872 482.777 30.1193 484.703 30.1193ZM484.703 29.1818C483.433 29.1818 482.692 27.9077 482.692 25.6364C482.692 23.3693 483.442 22.0739 484.703 22.0739C485.964 22.0739 486.714 23.3693 486.714 25.6364C486.714 27.9077 485.973 29.1818 484.703 29.1818ZM492.203 30.1193C494.129 30.1193 495.237 28.4872 495.237 25.6364C495.237 22.8068 494.112 21.1534 492.203 21.1534C490.294 21.1534 489.169 22.8068 489.169 25.6364C489.169 28.4872 490.277 30.1193 492.203 30.1193ZM492.203 29.1818C490.933 29.1818 490.192 27.9077 490.192 25.6364C490.192 23.3693 490.942 22.0739 492.203 22.0739C493.464 22.0739 494.214 23.3693 494.214 25.6364C494.214 27.9077 493.473 29.1818 492.203 29.1818ZM499.703 30.1193C501.629 30.1193 502.737 28.4872 502.737 25.6364C502.737 22.8068 501.612 21.1534 499.703 21.1534C497.794 21.1534 496.669 22.8068 496.669 25.6364C496.669 28.4872 497.777 30.1193 499.703 30.1193ZM499.703 29.1818C498.433 29.1818 497.692 27.9077 497.692 25.6364C497.692 23.3693 498.442 22.0739 499.703 22.0739C500.964 22.0739 501.714 23.3693 501.714 25.6364C501.714 27.9077 500.973 29.1818 499.703 29.1818Z" fill="#1B1C1E"/><circle cx="4" cy="4" r="4" fill="gold"/><circle cx="4" cy="4" r="4" fill="gold"/><circle cx="4" cy="4" r="4" fill="gold"/><circle cx="4" cy="4" r="4" fill="gold"/><circle cx="22" cy="4" r="2" fill="#1B1C1E" fill-opacity=".12"/><circle cx="22" cy="4" r="2" fill="#1B1C1E" fill-opacity=".12"/><circle cx="118" cy="4" r="2" fill="#1B1C1E" fill-opacity=".12"/><circle cx="118" cy="4" r="2" fill="#1B1C1E" fill-opacity=".12"/><circle cx="214" cy="4" r="2" fill="#1B1C1E" fill-opacity=".12"/><circle cx="214" cy="4" r="2" fill="#1B1C1E" fill-opacity=".12"/><circle cx="310" cy="4" r="2" fill="#1B1C1E" fill-opacity=".12"/><circle cx="310" cy="4" r="2" fill="#1B1C1E" fill-opacity=".12"/><circle cx="406" cy="4" r="2" fill="#1B1C1E" fill-opacity=".12"/><circle cx="406" cy="4" r="2" fill="#1B1C1E" fill-opacity=".12"/><circle cx="61" cy="4" r="2" fill="#1B1C1E" fill-opacity=".12"/><circle cx="61" cy="4" r="2" fill="#1B1C1E" fill-opacity=".12"/><circle cx="62" cy="4" r="2" fill="#1B1C1E" fill-opacity=".12"/><circle cx="62" cy="4" r="2" fill="#1B1C1E" fill-opacity=".12"/><circle cx="158" cy="4" r="2" fill="#1B1C1E" fill-opacity=".12"/><circle cx="158" cy="4" r="2" fill="#1B1C1E" fill-opacity=".12"/><circle cx="254" cy="4" r="2" fill="#1B1C1E" fill-opacity=".12"/><circle cx="254" cy="4" r="2" fill="#1B1C1E" fill-opacity=".12"/><circle cx="350" cy="4" r="2" fill="#1B1C1E" fill-opacity=".12"/><circle cx="350" cy="4" r="2" fill="#1B1C1E" fill-opacity=".12"/><circle cx="448" cy="4" r="2" fill="#1B1C1E" fill-opacity=".12"/><circle cx="448" cy="4" r="2" fill="#1B1C1E" fill-opacity=".12"/><circle cx="82" cy="4" r="2" fill="#1B1C1E" fill-opacity=".12"/><circle cx="82" cy="4" r="2" fill="#1B1C1E" fill-opacity=".12"/><circle cx="178" cy="4" r="2" fill="#1B1C1E" fill-opacity=".12"/><circle cx="178" cy="4" r="2" fill="#1B1C1E" fill-opacity=".12"/><circle cx="274" cy="4" r="2" fill="#1B1C1E" fill-opacity=".12"/><circle cx="274" cy="4" r="2" fill="#1B1C1E" fill-opacity=".12"/><circle cx="370" cy="4" r="2" fill="#1B1C1E" fill-opacity=".12"/><circle cx="370" cy="4" r="2" fill="#1B1C1E" fill-opacity=".12"/><circle cx="466" cy="4" r="2" fill="#1B1C1E" fill-opacity=".12"/><circle cx="466" cy="4" r="2" fill="#1B1C1E" fill-opacity=".12"/><circle cx="42" cy="4" r="2" fill="#1B1C1E" fill-opacity=".12"/><circle cx="42" cy="4" r="2" fill="#1B1C1E" fill-opacity=".12"/><circle cx="138" cy="4" r="2" fill="#1B1C1E" fill-opacity=".12"/><circle cx="138" cy="4" r="2" fill="#1B1C1E" fill-opacity=".12"/><circle cx="234" cy="4" r="2" fill="#1B1C1E" fill-opacity=".12"/><circle cx="234" cy="4" r="2" fill="#1B1C1E" fill-opacity=".12"/><circle cx="330" cy="4" r="2" fill="#1B1C1E" fill-opacity=".12"/><circle cx="330" cy="4" r="2" fill="#1B1C1E" fill-opacity=".12"/><circle cx="426" cy="4" r="2" fill="#1B1C1E" fill-opacity=".12"/><circle cx="426" cy="4" r="2" fill="#1B1C1E" fill-opacity=".12"/><circle cx="100" cy="4" r="4" fill="gold"/><circle cx="100" cy="4" r="4" fill="gold"/><circle cx="196" cy="4" r="4" fill="gold"/><circle cx="196" cy="4" r="4" fill="gold"/><circle cx="292" cy="4" r="4" fill="gold"/><circle cx="292" cy="4" r="4" fill="gold"/><circle cx="388" cy="4" r="4" fill="gold"/><circle cx="388" cy="4" r="4" fill="gold"/><circle cx="484" cy="4" r="4" fill="gold"/><circle cx="484" cy="4" r="4" fill="gold"/></svg>