<svg width="12" height="12" viewBox="0 0 12 12" fill="none" xmlns="http://www.w3.org/2000/svg"><path d="M0.181242 5.58184C1.40888 4.76537 2.77925 4.0839 4.05966 3.39897C6.26245 2.2771 8.474 1.17468 10.7079 0.14833C11.1425 -0.0265385 11.9234 -0.197529 12 0.58015C11.9581 1.68099 11.7856 2.77539 11.6673 3.86978C11.367 6.27646 11.0199 8.67489 10.6814 11.0736C10.5648 11.8727 9.73585 12.2863 9.20543 11.7749C7.93071 10.7353 6.64619 9.70577 5.38775 8.64202C4.97552 8.13626 5.35779 7.40994 5.72594 7.04877C6.77584 5.79946 7.88927 4.73804 8.8843 3.42417C9.1527 2.64159 8.35965 3.30112 8.09806 3.50323C6.66074 4.69917 5.25861 5.96812 3.74323 7.0192C2.96917 7.53368 2.067 7.09402 1.29329 6.80694C0.599582 6.46013 -0.416912 6.11062 0.181242 5.58184Z"/></svg>