<svg width="322" height="75" viewBox="0 0 322 75" fill="none" xmlns="http://www.w3.org/2000/svg"><g filter="url(#filter0_dd)"><rect x="24" y="12" width="282" height="43" rx="21.5" fill="#069AED"/><path d="M17 54.2118C17 54.2118 26.86 57.5242 34 50.5682L24 34C24 50.2307 17 54.2118 17 54.2118Z" fill="#069AED"/><path d="M33.5 51.3105C28.74 58.1592 17.3137 55.8756 14.3252 55.1372C14.1258 55.0879 14.1167 54.7639 14.3021 54.6756C16.3213 53.7143 22 49.622 22 34" stroke="#fff" stroke-width="4"/><path d="M45.5682 29.392H49.1307V39H51.5625V29.392H55.125V27.3636H45.5682V29.392ZM59.3651 39.1705C61.5241 39.1705 62.9787 38.1193 63.3196 36.5L61.081 36.3523C60.8366 37.017 60.2116 37.3636 59.4048 37.3636C58.1946 37.3636 57.4276 36.5625 57.4276 35.2614V35.2557H63.3707V34.5909C63.3707 31.625 61.5753 30.1591 59.2685 30.1591C56.7003 30.1591 55.0355 31.983 55.0355 34.6761C55.0355 37.4432 56.6776 39.1705 59.3651 39.1705ZM57.4276 33.7557C57.4787 32.7614 58.2344 31.9659 59.3082 31.9659C60.3594 31.9659 61.0866 32.7159 61.0923 33.7557H57.4276ZM64.4389 39H65.1662C67.0185 39 68.0014 37.7727 68.1491 34.8409L68.2855 32.1761H70.4389V39H72.7457V30.2727H66.1094L65.9673 34.1364C65.8821 36.3466 65.5412 37.0795 64.7173 37.0795H64.4276L64.4389 39ZM78.5994 39.1705C80.7585 39.1705 82.2131 38.1193 82.554 36.5L80.3153 36.3523C80.071 37.017 79.446 37.3636 78.6392 37.3636C77.429 37.3636 76.6619 36.5625 76.6619 35.2614V35.2557H82.6051V34.5909C82.6051 31.625 80.8097 30.1591 78.5028 30.1591C75.9347 30.1591 74.2699 31.983 74.2699 34.6761C74.2699 37.4432 75.9119 39.1705 78.5994 39.1705ZM76.6619 33.7557C76.7131 32.7614 77.4688 31.9659 78.5426 31.9659C79.5938 31.9659 80.321 32.7159 80.3267 33.7557H76.6619ZM90.1619 30.2727H84.1847V39H86.5369V32.1761H90.1619V30.2727ZM91.6378 42.2727H94.0582V37.6023H94.1321C94.4673 38.3295 95.2003 39.142 96.6094 39.142C98.598 39.142 100.149 37.5682 100.149 34.6477C100.149 31.6477 98.5298 30.1591 96.6151 30.1591C95.1548 30.1591 94.456 31.0284 94.1321 31.7386H94.0241V30.2727H91.6378V42.2727ZM94.0071 34.6364C94.0071 33.0795 94.6662 32.0852 95.8423 32.0852C97.0412 32.0852 97.6776 33.125 97.6776 34.6364C97.6776 36.1591 97.0298 37.2159 95.8423 37.2159C94.6776 37.2159 94.0071 36.1932 94.0071 34.6364ZM104.251 39.1648C105.541 39.1648 106.376 38.6023 106.803 37.7898H106.871V39H109.166V33.1136C109.166 31.0341 107.405 30.1591 105.462 30.1591C103.371 30.1591 101.996 31.1591 101.661 32.75L103.899 32.9318C104.064 32.3523 104.581 31.9261 105.45 31.9261C106.274 31.9261 106.746 32.3409 106.746 33.0568V33.0909C106.746 33.6534 106.149 33.7273 104.632 33.875C102.905 34.0341 101.354 34.6136 101.354 36.5625C101.354 38.2898 102.587 39.1648 104.251 39.1648ZM104.945 37.4943C104.2 37.4943 103.666 37.1477 103.666 36.483C103.666 35.8011 104.229 35.4659 105.081 35.3466C105.609 35.2727 106.473 35.1477 106.763 34.9545V35.8807C106.763 36.7955 106.007 37.4943 104.945 37.4943ZM116.203 36.3239L113.908 30.2727H111.044V39H113.357V33.642L115.396 39H117.004L119.169 33.4489V39H121.453V30.2727H118.567L116.203 36.3239ZM134.284 27.0682C133.858 27.3693 133.176 27.3636 132.244 27.3636C132.023 27.3636 131.79 27.358 131.54 27.3636C128.364 27.392 126.705 29.3807 126.705 33.5852V34.3011C126.705 37.4716 128.341 39.1705 130.983 39.1705C133.619 39.1705 135.25 37.4716 135.25 34.8068C135.25 32.25 133.756 30.7216 131.528 30.7216C130.125 30.7216 129.182 31.3295 128.659 32.3977H128.574C128.778 30.2557 129.597 29.375 131.619 29.3523C133.409 29.3239 134.278 29.2614 135.023 28.6477L134.284 27.0682ZM130.994 37.2955C129.852 37.2955 129.165 36.375 129.165 34.8864C129.176 33.3977 129.858 32.5568 130.983 32.5568C132.102 32.5568 132.79 33.3977 132.79 34.8864C132.79 36.3807 132.102 37.2955 130.994 37.2955ZM139.169 35.8068V30.2727H136.857V39H139.26L142.391 33.4489V39H144.697V30.2727H142.311L139.169 35.8068ZM146.638 42.2727H149.058V37.6023H149.132C149.467 38.3295 150.2 39.142 151.609 39.142C153.598 39.142 155.149 37.5682 155.149 34.6477C155.149 31.6477 153.53 30.1591 151.615 30.1591C150.155 30.1591 149.456 31.0284 149.132 31.7386H149.024V30.2727H146.638V42.2727ZM149.007 34.6364C149.007 33.0795 149.666 32.0852 150.842 32.0852C152.041 32.0852 152.678 33.125 152.678 34.6364C152.678 36.1591 152.03 37.2159 150.842 37.2159C149.678 37.2159 149.007 36.1932 149.007 34.6364ZM155.866 39H158.69L160.946 35.5909H161.287V39H163.707V35.5909H164.048L166.293 39H169.116L166.071 34.4602L169.099 30.2727H166.338L164.071 33.6875H163.707V30.2727H161.287V33.6875H160.912L158.645 30.2727H155.884L158.918 34.4602L155.866 39ZM172.923 39.1648C174.213 39.1648 175.048 38.6023 175.474 37.7898H175.543V39H177.838V33.1136C177.838 31.0341 176.077 30.1591 174.134 30.1591C172.043 30.1591 170.668 31.1591 170.332 32.75L172.571 32.9318C172.736 32.3523 173.253 31.9261 174.122 31.9261C174.946 31.9261 175.418 32.3409 175.418 33.0568V33.0909C175.418 33.6534 174.821 33.7273 173.304 33.875C171.577 34.0341 170.026 34.6136 170.026 36.5625C170.026 38.2898 171.259 39.1648 172.923 39.1648ZM173.616 37.4943C172.872 37.4943 172.338 37.1477 172.338 36.483C172.338 35.8011 172.901 35.4659 173.753 35.3466C174.281 35.2727 175.145 35.1477 175.435 34.9545V35.8807C175.435 36.7955 174.679 37.4943 173.616 37.4943ZM183.464 27.3636V39H185.851V31.3977H185.947L188.959 38.9432H190.584L193.595 31.4261H193.692V39H196.078V27.3636H193.044L189.839 35.1818H189.703L186.499 27.3636H183.464ZM200.548 39.1648C201.838 39.1648 202.673 38.6023 203.099 37.7898H203.168V39H205.463V33.1136C205.463 31.0341 203.702 30.1591 201.759 30.1591C199.668 30.1591 198.293 31.1591 197.957 32.75L200.196 32.9318C200.361 32.3523 200.878 31.9261 201.747 31.9261C202.571 31.9261 203.043 32.3409 203.043 33.0568V33.0909C203.043 33.6534 202.446 33.7273 200.929 33.875C199.202 34.0341 197.651 34.6136 197.651 36.5625C197.651 38.2898 198.884 39.1648 200.548 39.1648ZM201.241 37.4943C200.497 37.4943 199.963 37.1477 199.963 36.483C199.963 35.8011 200.526 35.4659 201.378 35.3466C201.906 35.2727 202.77 35.1477 203.06 34.9545V35.8807C203.06 36.7955 202.304 37.4943 201.241 37.4943ZM207.341 42.2727H209.761V37.6023H209.835C210.17 38.3295 210.903 39.142 212.312 39.142C214.301 39.142 215.852 37.5682 215.852 34.6477C215.852 31.6477 214.233 30.1591 212.318 30.1591C210.858 30.1591 210.159 31.0284 209.835 31.7386H209.727V30.2727H207.341V42.2727ZM209.71 34.6364C209.71 33.0795 210.369 32.0852 211.545 32.0852C212.744 32.0852 213.381 33.125 213.381 34.6364C213.381 36.1591 212.733 37.2159 211.545 37.2159C210.381 37.2159 209.71 36.1932 209.71 34.6364ZM216.621 32.1761H219.411V39H221.717V32.1761H224.53V30.2727H216.621V32.1761ZM229.662 39.1705C231.821 39.1705 233.276 38.1193 233.616 36.5L231.378 36.3523C231.134 37.017 230.509 37.3636 229.702 37.3636C228.491 37.3636 227.724 36.5625 227.724 35.2614V35.2557H233.668V34.5909C233.668 31.625 231.872 30.1591 229.565 30.1591C226.997 30.1591 225.332 31.983 225.332 34.6761C225.332 37.4432 226.974 39.1705 229.662 39.1705ZM227.724 33.7557C227.776 32.7614 228.531 31.9659 229.605 31.9659C230.656 31.9659 231.384 32.7159 231.389 33.7557H227.724ZM237.56 30.2727H235.247V39H237.56V35.5739H240.543V39H242.838V30.2727H240.543V33.6705H237.56V30.2727ZM248.659 39.1705C250.983 39.1705 252.443 37.8068 252.557 35.8011H250.273C250.131 36.733 249.517 37.2557 248.688 37.2557C247.557 37.2557 246.824 36.3068 246.824 34.6364C246.824 32.9886 247.562 32.0455 248.688 32.0455C249.574 32.0455 250.142 32.6307 250.273 33.5H252.557C252.455 31.483 250.926 30.1591 248.648 30.1591C246 30.1591 244.364 31.9943 244.364 34.6705C244.364 37.3239 245.972 39.1705 248.659 39.1705ZM256.595 39.1648C257.885 39.1648 258.72 38.6023 259.146 37.7898H259.214V39H261.51V33.1136C261.51 31.0341 259.749 30.1591 257.805 30.1591C255.714 30.1591 254.339 31.1591 254.004 32.75L256.243 32.9318C256.408 32.3523 256.925 31.9261 257.794 31.9261C258.618 31.9261 259.089 32.3409 259.089 33.0568V33.0909C259.089 33.6534 258.493 33.7273 256.976 33.875C255.249 34.0341 253.697 34.6136 253.697 36.5625C253.697 38.2898 254.93 39.1648 256.595 39.1648ZM257.288 37.4943C256.544 37.4943 256.01 37.1477 256.01 36.483C256.01 35.8011 256.572 35.4659 257.425 35.3466C257.953 35.2727 258.817 35.1477 259.107 34.9545V35.8807C259.107 36.7955 258.351 37.4943 257.288 37.4943ZM277.794 39.6364L283.521 33.9091L277.794 28.1818L276.476 29.4943L279.936 32.9489H271.828V34.8693H279.936L276.476 38.3295L277.794 39.6364Z" fill="#fff"/><rect x="22" y="10" width="286" height="47" rx="23.5" stroke="#fff" stroke-width="4"/></g><defs><filter id="filter0_dd" x=".17" y="0" width="321.83" height="75" filterUnits="userSpaceOnUse" color-interpolation-filters="sRGB"><feFlood flood-opacity="0" result="BackgroundImageFix"/><feColorMatrix in="SourceAlpha" values="0 0 0 0 0 0 0 0 0 0 0 0 0 0 0 0 0 0 127 0"/><feOffset dy="1"/><feGaussianBlur stdDeviation=".75"/><feColorMatrix values="0 0 0 0 0.105882 0 0 0 0 0.109804 0 0 0 0 0.117647 0 0 0 0.04 0"/><feBlend in2="BackgroundImageFix" result="effect1_dropShadow"/><feColorMatrix in="SourceAlpha" values="0 0 0 0 0 0 0 0 0 0 0 0 0 0 0 0 0 0 127 0"/><feOffset dy="4"/><feGaussianBlur stdDeviation="6"/><feColorMatrix values="0 0 0 0 0.105882 0 0 0 0 0.109804 0 0 0 0 0.117647 0 0 0 0.16 0"/><feBlend in2="effect1_dropShadow" result="effect2_dropShadow"/><feBlend in="SourceGraphic" in2="effect2_dropShadow" result="shape"/></filter></defs></svg>