<svg width="36" height="36" viewBox="0 0 36 36" fill="none" xmlns="http://www.w3.org/2000/svg"><rect width="36" height="36" rx="8" fill="#069AED"/><path d="M14.7008 26.25C14.1176 26.25 14.2167 26.0298 14.0156 25.4746L12.3008 19.8309L25.5008 12" fill="#C8DAEA"/><path d="M14.6992 26.2491C15.1492 26.2491 15.348 26.0433 15.5992 25.7991L17.9992 23.4654L15.0055 21.6602" fill="#A9C9DD"/><path d="M15.0041 21.6606L22.2581 27.02C23.0859 27.4767 23.6833 27.2402 23.8895 26.2515L26.8423 12.337C27.1446 11.125 26.3803 10.5753 25.5884 10.9348L8.24986 17.6204C7.06635 18.0951 7.07325 18.7554 8.03413 19.0496L12.4836 20.4384L22.7845 13.9396C23.2708 13.6447 23.7171 13.8033 23.3508 14.1284" fill="#fff"/><defs><linearGradient id="paint0_linear" x1="15.745" y1="19.105" x2="17.668" y2="25.326" gradientUnits="userSpaceOnUse"><stop stop-color="#EFF7FC"/><stop offset="1" stop-color="#fff"/></linearGradient></defs></svg>