<svg width="24" height="24" viewBox="0 0 24 24" fill="none" xmlns="http://www.w3.org/2000/svg"><path d="M12 24C18.6274 24 24 18.6274 24 12C24 5.37258 18.6274 0 12 0C5.37258 0 0 5.37258 0 12C0 18.6274 5.37258 24 12 24Z" fill="url(#paint0_linear)"/><path d="M12 24C18.6274 24 24 18.6274 24 12C24 5.37258 18.6274 0 12 0C5.37258 0 0 5.37258 0 12C0 18.6274 5.37258 24 12 24Z" fill="#069AED"/><path d="M4.4691 12.5872C5.8719 11.8145 7.4378 11.1696 8.9009 10.5214C11.418 9.45966 13.9451 8.41636 16.4977 7.44506C16.9943 7.27957 17.8867 7.11775 17.9742 7.85372C17.9263 8.89552 17.7292 9.93122 17.594 10.9669C17.2509 13.2445 16.8542 15.5143 16.4675 17.7844C16.3342 18.5406 15.387 18.932 14.7809 18.4481C13.3243 17.4643 11.8565 16.4899 10.4185 15.4832C9.94743 15.0046 10.3842 14.3172 10.8049 13.9754C12.0046 12.7931 13.2769 11.7886 14.4139 10.5452C14.7206 9.8046 13.8144 10.4288 13.5155 10.62C11.8731 11.7518 10.2709 12.9527 8.53932 13.9474C7.65482 14.4343 6.62392 14.0182 5.73982 13.7466C4.94713 13.4183 3.78552 13.0877 4.46902 12.5873L4.4691 12.5872Z" fill="#fff"/><defs><linearGradient id="paint0_linear" x1="16.001" y1="4.001" x2="10.001" y2="18" gradientUnits="userSpaceOnUse"><stop stop-color="#37AEE2"/><stop offset="1" stop-color="#1E96C8"/></linearGradient></defs></svg>