<svg width="17" height="16" viewBox="0 0 17 16" fill="none" xmlns="http://www.w3.org/2000/svg"><path d="M7.97867 16H7.25867C5.13917 15.8121 3.18561 14.7754 1.84188 13.1256C0.485145 11.4782 -0.1643 9.36078 0.0354847 7.23602C0.350117 3.38326 3.40419 0.322761 7.25627 1.35114e-05C7.57142 -0.00163094 7.86851 0.146915 8.05627 0.400027C8.2318 0.679344 8.19906 1.04152 7.97627 1.28483C7.21092 2.32447 6.89398 3.62739 7.09627 4.90242C7.2644 6.1735 7.96473 7.31327 9.02267 8.03761C10.7033 9.3244 13.038 9.3244 14.7187 8.03761C14.8716 7.93157 15.0526 7.87312 15.2387 7.86961C15.3649 7.86982 15.4893 7.89969 15.6019 7.95681C15.8554 8.14601 16.0039 8.44447 16.0019 8.76081C15.8426 10.9059 14.7959 12.8873 13.1139 14.228C11.6372 15.3554 9.8364 15.9768 7.97867 16ZM5.73227 1.84882C3.37918 2.68132 1.74175 4.82741 1.56028 7.31681C1.39994 9.0139 1.91924 10.7053 3.00428 12.02C4.08135 13.3353 5.64289 14.1612 7.33627 14.3112C7.54587 14.3312 7.75867 14.3416 7.96827 14.3416C9.44368 14.3534 10.873 13.8282 11.9899 12.864C12.8571 12.1344 13.5205 11.1926 13.9155 10.1304C13.2197 10.3817 12.4856 10.51 11.7459 10.5096C10.3614 10.5093 9.01317 10.0667 7.89787 9.24641C6.55049 8.22205 5.63504 6.73073 5.33148 5.06562C5.25924 3.97762 5.39528 2.88583 5.73227 1.84882Z" fill="#1B1C1E"/></svg>