<svg width="22" height="22" viewBox="0 0 22 22" fill="none" xmlns="http://www.w3.org/2000/svg"><path d="M10.8522 0.162266C10.9315 0.0751953 11.0685 0.0751954 11.1478 0.162266L13.1913 2.40507C13.2439 2.46283 13.3253 2.48466 13.3998 2.46095L16.2908 1.54033C16.4031 1.50459 16.5217 1.5731 16.5469 1.68817L17.1951 4.6522C17.2118 4.72854 17.2715 4.78816 17.3478 4.80485L20.3118 5.4531C20.4269 5.47827 20.4954 5.59693 20.4597 5.70917L19.5391 8.60022C19.5153 8.67467 19.5372 8.75612 19.5949 8.80874L21.8377 10.8522C21.9248 10.9315 21.9248 11.0685 21.8377 11.1478L19.5949 13.1913C19.5372 13.2439 19.5153 13.3253 19.5391 13.3998L20.4597 16.2908C20.4954 16.4031 20.4269 16.5217 20.3118 16.5469L17.3478 17.1951C17.2715 17.2118 17.2118 17.2715 17.1951 17.3478L16.5469 20.3118C16.5217 20.4269 16.4031 20.4954 16.2908 20.4597L13.3998 19.5391C13.3253 19.5153 13.2439 19.5372 13.1913 19.5949L11.1478 21.8377C11.0685 21.9248 10.9315 21.9248 10.8522 21.8377L8.80874 19.5949C8.75612 19.5372 8.67467 19.5153 8.60022 19.5391L5.70917 20.4597C5.59693 20.4954 5.47827 20.4269 5.4531 20.3118L4.80485 17.3478C4.78816 17.2715 4.72854 17.2118 4.6522 17.1951L1.68817 16.5469C1.5731 16.5217 1.50459 16.4031 1.54033 16.2908L2.46095 13.3998C2.48466 13.3253 2.46283 13.2439 2.40507 13.1913L0.162266 11.1478C0.0751953 11.0685 0.0751954 10.9315 0.162266 10.8522L2.40507 8.80874C2.46283 8.75612 2.48466 8.67467 2.46095 8.60022L1.54033 5.70917C1.50459 5.59693 1.5731 5.47827 1.68817 5.4531L4.6522 4.80485C4.72854 4.78816 4.78816 4.72854 4.80485 4.6522L5.4531 1.68817C5.47827 1.5731 5.59693 1.50459 5.70917 1.54033L8.60022 2.46095C8.67467 2.48466 8.75612 2.46283 8.80874 2.40507L10.8522 0.162266Z" fill="#4B970E"/><path d="M7.03711 11.3384L9.57282 13.8742L14.6443 8.80273" stroke="#fff" stroke-width="1.6" stroke-linecap="round" stroke-linejoin="round"/></svg>