<svg width="36" height="36" viewBox="0 0 36 36" fill="none" xmlns="http://www.w3.org/2000/svg"><rect width="36" height="36" rx="8" fill="#2787F5"/><path d="M18.942 23.9063C18.942 23.9063 19.2885 23.8685 19.466 23.6814C19.6284 23.5099 19.6228 23.1864 19.6228 23.1864C19.6228 23.1864 19.6012 21.6755 20.3159 21.4525C21.0202 21.2331 21.9245 22.9135 22.8842 23.5597C23.6092 24.0482 24.1595 23.9413 24.1595 23.9413L26.7241 23.9063C26.7241 23.9063 28.0651 23.8252 27.4293 22.79C27.3767 22.7052 27.0584 22.024 25.523 20.6247C23.9144 19.16 24.1304 19.3969 26.0667 16.8629C27.2462 15.3198 27.7176 14.3777 27.5702 13.9749C27.4303 13.5896 26.5626 13.6919 26.5626 13.6919L23.6759 13.7094C23.6759 13.7094 23.4617 13.6809 23.303 13.774C23.1481 13.8652 23.0476 14.0781 23.0476 14.0781C23.0476 14.0781 22.5912 15.2719 21.9818 16.2877C20.6962 18.4299 20.1825 18.5433 19.9722 18.4106C19.4829 18.0999 19.605 17.1643 19.605 16.4997C19.605 14.4229 19.9261 13.5573 18.9805 13.3333C18.6668 13.2587 18.4358 13.2098 17.6329 13.2015C16.6028 13.1914 15.7313 13.2052 15.2373 13.4421C14.9087 13.5997 14.6551 13.9519 14.8101 13.9721C15.0007 13.997 15.4327 14.0864 15.6618 14.3925C15.9576 14.7879 15.9473 15.6747 15.9473 15.6747C15.9473 15.6747 16.1173 18.1193 15.5501 18.4225C15.1613 18.6309 14.6279 18.2059 13.4813 16.2619C12.8944 15.2663 12.4511 14.1657 12.4511 14.1657C12.4511 14.1657 12.3657 13.9602 12.2126 13.8495C12.0276 13.7159 11.7694 13.6744 11.7694 13.6744L9.02632 13.6919C9.02632 13.6919 8.61407 13.703 8.46288 13.879C8.32859 14.0348 8.45255 14.3584 8.45255 14.3584C8.45255 14.3584 10.6002 19.2909 13.0324 21.7769C15.2627 24.0556 17.7944 23.9063 17.7944 23.9063H18.942Z" fill="#fff"/></svg>