<svg width="317" height="38" viewBox="0 0 317 38" fill="none" xmlns="http://www.w3.org/2000/svg"><rect width="38" height="38" rx="12" fill="gold"/><circle cx="19" cy="19" r="9" stroke="#000" stroke-width="2"/><path d="M61.41 29.5H66.03V12.76H72.42V8.5H55.02V12.76H61.41V29.5ZM79.9491 29.86C82.8591 29.86 85.0191 28.72 86.5191 26.86L83.9091 24.55C82.6491 25.72 81.5391 26.2 80.0091 26.2C77.9691 26.2 76.5291 25.12 76.0791 23.05H87.2691C87.2991 22.63 87.3291 22.21 87.3291 21.85C87.3291 17.29 84.8691 13.12 79.4991 13.12C74.8191 13.12 71.5491 16.9 71.5491 21.49C71.5491 26.47 75.1191 29.86 79.9491 29.86ZM76.0191 20.2C76.3791 18.13 77.6091 16.78 79.4991 16.78C81.4191 16.78 82.6191 18.16 82.8891 20.2H76.0191ZM90.9375 29.5H95.4975V7.6H90.9375V29.5ZM107.4 29.86C110.31 29.86 112.47 28.72 113.97 26.86L111.36 24.55C110.1 25.72 108.99 26.2 107.46 26.2C105.42 26.2 103.98 25.12 103.53 23.05H114.72C114.75 22.63 114.78 22.21 114.78 21.85C114.78 17.29 112.32 13.12 106.95 13.12C102.27 13.12 99.0002 16.9 99.0002 21.49C99.0002 26.47 102.57 29.86 107.4 29.86ZM103.47 20.2C103.83 18.13 105.06 16.78 106.95 16.78C108.87 16.78 110.07 18.16 110.34 20.2H103.47ZM123.819 29.8C127.299 29.8 129.969 28.18 129.969 24.61C129.969 21.61 127.359 20.53 125.109 19.78C123.369 19.18 121.839 18.76 121.839 17.86C121.839 17.17 122.409 16.69 123.519 16.69C124.689 16.69 126.279 17.26 127.869 18.19L129.609 15.04C127.869 13.87 125.649 13.18 123.609 13.18C120.369 13.18 117.729 15.01 117.729 18.28C117.729 21.46 120.279 22.51 122.529 23.17C124.299 23.71 125.859 24.04 125.859 25.03C125.859 25.81 125.259 26.29 123.939 26.29C122.439 26.29 120.609 25.63 118.869 24.37L116.919 27.37C119.049 29.05 121.569 29.8 123.819 29.8ZM133.237 34.3H137.797V27.4C138.877 28.69 140.377 29.8 142.807 29.8C146.617 29.8 150.127 26.86 150.127 21.49C150.127 16.06 146.557 13.12 142.807 13.12C140.437 13.12 138.907 14.23 137.797 15.73V13.42H133.237V34.3ZM141.637 25.93C139.507 25.93 137.737 24.16 137.737 21.49C137.737 18.76 139.507 16.99 141.637 16.99C143.767 16.99 145.567 18.76 145.567 21.43C145.567 24.19 143.767 25.93 141.637 25.93ZM158.041 29.8C160.261 29.8 161.791 28.99 162.901 27.76V29.5H167.311V20.17C167.311 18.01 166.771 16.24 165.571 15.04C164.431 13.9 162.631 13.24 160.141 13.24C157.411 13.24 155.671 13.75 153.901 14.53L155.041 18.01C156.511 17.47 157.741 17.14 159.481 17.14C161.761 17.14 162.931 18.19 162.931 20.08V20.35C161.791 19.96 160.621 19.69 159.001 19.69C155.191 19.69 152.521 21.31 152.521 24.82C152.521 28.06 155.011 29.8 158.041 29.8ZM159.421 26.65C157.951 26.65 156.931 25.93 156.931 24.7C156.931 23.2 158.131 22.42 160.081 22.42C161.191 22.42 162.211 22.66 162.991 23.02V23.83C162.991 25.48 161.551 26.65 159.421 26.65ZM178.825 29.86C182.035 29.86 183.835 28.63 185.395 26.92L182.725 24.22C181.615 25.27 180.565 25.93 179.035 25.93C176.545 25.93 174.955 23.95 174.955 21.49C174.955 19.06 176.575 17.05 178.855 17.05C180.655 17.05 181.615 17.71 182.605 18.64L185.275 15.94C183.775 14.26 181.915 13.12 178.885 13.12C173.965 13.12 170.455 16.9 170.455 21.49C170.455 26.14 173.995 29.86 178.825 29.86ZM195.555 29.86C198.465 29.86 200.625 28.72 202.125 26.86L199.515 24.55C198.255 25.72 197.145 26.2 195.615 26.2C193.575 26.2 192.135 25.12 191.685 23.05H202.875C202.905 22.63 202.935 22.21 202.935 21.85C202.935 17.29 200.475 13.12 195.105 13.12C190.425 13.12 187.155 16.9 187.155 21.49C187.155 26.47 190.725 29.86 195.555 29.86ZM191.625 20.2C191.985 18.13 193.215 16.78 195.105 16.78C197.025 16.78 198.225 18.16 198.495 20.2H191.625ZM216.257 29.5H225.077C229.757 29.5 232.817 27.34 232.817 23.23C232.817 19 229.307 17.11 224.837 17.11H218.627V10.66H231.317V8.5H216.257V29.5ZM218.627 27.34V19.21H224.777C228.257 19.21 230.447 20.47 230.447 23.11C230.447 26.14 228.287 27.34 224.897 27.34H218.627ZM237.107 29.5H239.327L248.567 17.23V29.5H250.877V13.99H248.627L239.417 26.26V13.99H237.107V29.5ZM256.033 34.3H258.343V26.53C259.543 28.27 261.403 29.83 264.283 29.83C268.033 29.83 271.693 26.83 271.693 21.76C271.693 16.6 268.003 13.66 264.283 13.66C261.433 13.66 259.603 15.25 258.343 17.11V13.99H256.033V34.3ZM263.863 27.76C260.983 27.76 258.253 25.36 258.253 21.76C258.253 18.16 260.983 15.73 263.863 15.73C266.803 15.73 269.323 18.07 269.323 21.73C269.323 25.54 266.863 27.76 263.863 27.76ZM273.975 29.5H276.675L281.835 22.27L284.985 25.72V29.5H287.295V25.72L290.445 22.27L295.605 29.5H298.305L291.945 20.62L297.975 13.99H295.185L287.295 22.99V13.99H284.985V22.99L277.095 13.99H274.305L280.335 20.62L273.975 29.5ZM306.093 29.83C308.823 29.83 310.593 28.57 311.673 27.19V29.5H313.953V20.02C313.953 18.04 313.413 16.54 312.333 15.46C311.223 14.35 309.513 13.75 307.323 13.75C305.043 13.75 303.393 14.29 301.683 15.07L302.373 16.96C303.813 16.3 305.253 15.85 307.083 15.85C309.993 15.85 311.673 17.29 311.673 20.05V20.53C310.293 20.14 308.913 19.87 306.933 19.87C303.003 19.87 300.303 21.61 300.303 24.94C300.303 28.18 303.183 29.83 306.093 29.83ZM306.543 27.97C304.443 27.97 302.643 26.83 302.643 24.88C302.643 22.96 304.293 21.7 307.173 21.7C309.063 21.7 310.563 22.03 311.703 22.36V23.8C311.703 26.26 309.393 27.97 306.543 27.97Z" fill="#fff"/><rect width="38" height="38" rx="12" fill="gold"/><circle cx="19" cy="19" r="13" fill="gold" stroke="gold" stroke-width="4"/><path d="M9.8322 16.2246C6.28446 17.0184 4 18.2621 4 19.6601C4 22.0572 10.7157 24.0003 19 24.0003C27.2843 24.0003 34 22.0572 34 19.6601C34 18.3181 31.8951 17.1184 28.5886 16.3223" stroke="#000" stroke-width="2"/><path d="M30 19C30 17.5888 29.7343 16.2397 29.2501 15M8 19C8 17.5888 8.26573 16.2397 8.74988 15" stroke="gold" stroke-width="3"/><circle cx="19" cy="19" r="10" fill="gold" stroke="#000" stroke-width="2"/><path d="M34 19.6602C34 22.0572 27.2843 24.0004 19 24.0004C10.7157 24.0004 4 22.0572 4 19.6602" stroke="gold" stroke-width="4"/><path d="M34 19.6602C34 22.0572 27.2843 24.0004 19 24.0004C10.7157 24.0004 4 22.0572 4 19.6602" stroke="#000" stroke-width="2"/></svg>