<svg xmlns="http://www.w3.org/2000/svg" height="415.688" viewBox="0 0 51.991 51.961" width="415.929"><path d="m 31.321,38.904 c -0.006,0 -0.012,0 -0.018,0 -1.104,-0.01 -1.992,-0.913 -1.982,-2.018 l 0.009,-1 c 0,-0.057 0.003,-0.115 0.009,-0.172 0.277,-2.909 2.208,-4.692 3.761,-6.125 0.526,-0.486 1.024,-0.945 1.448,-1.424 0.517,-0.583 1.267,-1.777 0.478,-3.218 -0.909,-1.664 -3.129,-2.135 -4.854,-1.74 -1.802,0.412 -2.466,1.951 -2.702,2.831 -0.286,1.067 -1.383,1.7 -2.45,1.415 -1.067,-0.286 -1.7,-1.383 -1.415,-2.45 0.797,-2.977 2.865,-5.052 5.673,-5.695 3.779,-0.863 7.585,0.664 9.256,3.719 1.391,2.544 1.01,5.529 -0.995,7.791 -0.557,0.628 -1.152,1.178 -1.728,1.709 -1.435,1.325 -2.332,2.211 -2.484,3.49 l -0.008,0.903 c -0.008,1.101 -0.902,1.984 -1.998,1.984 z" transform="translate(-5.999 -6.036)"/><path d="m 31.32,44.9 c -0.52,0 -1.04,-0.21 -1.41,-0.58 -0.38,-0.37 -0.59,-0.89 -0.59,-1.42 0,-0.52 0.21,-1.04 0.59,-1.41 0.74,-0.74 2.08,-0.74 2.82,0 0.38,0.37 0.59,0.89 0.59,1.41 0,0.53 -0.21,1.04 -0.58,1.42 -0.38,0.37 -0.89,0.58 -1.42,0.58 z" transform="translate(-5.999 -6.036)"/><path d="m 31.923,57.997 c -2.275,0 -4.53,-0.296 -6.703,-0.881 C 15.856,54.597 8.524,46.84 6.541,37.353 4.52,27.688 8.25,17.528 16.045,11.469 20.551,7.966 26.234,6.036 32.048,6.036 c 4.025,0 8.022,0.936 11.56,2.705 8.737,4.371 14.382,13.503 14.382,23.266 0,7.966 -3.759,15.644 -10.055,20.538 -4.522,3.516 -10.209,5.452 -16.012,5.452 z m 0.126,-47.961 c -4.929,0 -9.741,1.63 -13.548,4.591 -6.597,5.128 -9.755,13.727 -8.044,21.907 1.678,8.025 7.881,14.588 15.803,16.719 1.834,0.493 3.74,0.744 5.663,0.744 h 0.001 c 4.918,0 9.732,-1.637 13.557,-4.61 5.329,-4.142 8.51,-10.639 8.51,-17.38 0,-8.261 -4.777,-15.989 -12.171,-19.688 -2.986,-1.493 -6.364,-2.283 -9.771,-2.283 z" transform="translate(-5.999 -6.036)"/></svg>